<svg width="668" height="250" viewBox="0 0 668 250" fill="none" xmlns="http://www.w3.org/2000/svg">
<mask id="path-1-outside-1_3163_89437" maskUnits="userSpaceOnUse" x="-8.08569" y="-52" width="689" height="531" fill="black">
<rect fill="white" x="-8.08569" y="-52" width="689" height="531"/>
<path d="M59.1064 149.497C56.857 150.553 55.0136 151.398 53.1759 152.45C43.7769 158.119 36.8775 166.022 31.0213 175.353C22.9477 188.414 18.1814 202.67 15.0688 217.524C10.0144 242.072 9.90356 266.972 13.2879 291.625C18.2562 328.193 29.9881 362.417 47.8664 394.508C57.9607 412.494 69.6838 429.021 84.669 443.039C90.0804 448.118 95.8958 452.574 101.914 456.822C105.443 459.25 109.78 460.637 113.915 462.234C115.363 462.835 116.81 463.434 116.831 465.08C116.639 466.316 116.042 467.97 115.229 468.803C113.195 470.68 110.519 470.712 108.243 469.71C103.49 467.917 98.5332 466.535 94.3833 463.704C87.5396 459.26 81.1 454.194 75.0628 448.504C63.2086 438.153 53.3855 425.514 44.9917 412.034C15.8184 364.851 0.177873 313.596 -0.0840206 257.833C-0.177575 232.936 3.64418 208.608 13.6549 185.645C22.4661 165.578 34.6106 148.763 55.6916 139.249C55.2565 137.403 54.6208 135.763 54.1886 134.124C47.7664 113.417 43.1862 92.0724 41.6876 70.2771C40.1992 49.1001 41.3864 28.0963 48.1374 7.84909C50.3242 1.4429 53.1294 -4.76397 56.3521 -10.5649C72.6797 -38.7475 100.532 -49.7833 131.915 -41.1089C143.271 -37.9531 153.623 -32.7283 163.575 -26.4691C182.861 -14.1499 199.308 1.49672 214.33 18.5998C218.502 23.2833 222.266 28.1763 226.438 33.065C227.274 34.0835 228.107 34.8968 229.36 36.3212C230.365 34.4574 231.375 32.7987 232.18 31.3481C239.625 17.2656 249.143 4.59869 261.782 -5.22666C277.478 -17.556 295.303 -23.9447 315.482 -22.9539C327.426 -22.2744 338.37 -19.1143 349.134 -13.8939C366.107 -5.66169 380.242 6.30828 392.963 20.1464C394.63 21.9797 396.299 23.8114 398.179 26.0521C399.602 24.5942 400.818 23.1392 402.039 21.8894C414.021 8.78169 428.314 -0.445663 446.183 -3.33667C459.119 -5.54966 471.692 -3.85025 484.089 0.322575C499.999 5.68701 513.685 14.3688 526.367 25.1209C544.037 39.9309 558.652 57.4501 571.028 76.8506C572.074 78.2779 573.123 79.9118 574.379 81.7494C575.799 80.0849 576.813 78.838 578.03 77.3831C589.989 62.2166 602.57 47.6597 617.235 35.1368C623.957 29.2937 631.095 24.0646 638.442 19.0363C643.747 15.2679 649.887 12.518 656.456 11.2042C661.381 10.1173 664.475 10.6964 668 12.9181C667.796 13.1247 667.597 13.5394 667.597 13.5394C661.213 13.2048 655.688 15.7408 650.375 18.8922C642.203 23.7227 635.073 29.7768 628.361 36.2383C611.069 52.7011 595.651 70.9973 581.271 90.1023C581.07 90.5155 580.868 90.9302 580.262 91.761C580.894 92.9875 581.529 94.4192 582.37 95.8509C601.527 131.63 613.51 169.761 617.702 210.042C620.017 231.414 619.657 252.82 613.942 273.672C611.974 281.104 609.176 287.928 605.346 294.56C602.319 299.535 598.667 303.901 594.183 307.453C583.988 315.189 572.892 316.559 561.305 311.349C553.237 307.741 547.198 301.847 541.765 294.916C530.687 280.645 524.317 264.466 520.815 247.017C513.348 208.009 519.278 170.899 538.615 136.3C546.269 122.625 555.577 109.549 564.059 96.2772C565.072 94.8251 566.083 93.3716 567.094 91.9181C566.882 91.3042 566.876 90.8938 566.665 90.485C552.389 66.9932 535.26 45.7988 513.245 28.9838C500.783 19.464 487.522 12.0088 472.046 8.49216C446.463 2.83382 422.09 12.3871 405.487 34.8124C406.325 36.0375 407.373 37.6699 408.421 39.0987C428.928 67.4544 444.115 98.1366 452.551 132.194C456.014 146.351 458.243 160.522 457.595 175.14C457.287 183.582 456.359 192.03 452.954 199.686C451.154 204.029 448.737 208.378 445.694 211.913C438.797 220.227 428.743 222.613 418.41 219.034C412.622 216.84 407.642 213.401 403.268 209.133C395.774 201.816 390.111 193.036 385.677 183.623C375.121 161.526 370.516 138.123 370.635 113.84C370.72 86.6759 376.583 61.089 390.702 37.4604C390.904 37.0457 391.105 36.6325 391.505 35.8047C390.67 34.7862 389.832 33.5611 388.997 32.5426C378.979 20.9335 367.74 10.369 354.677 2.09032C344.516 -4.37261 333.759 -8.97462 321.801 -10.8879C305.513 -13.5723 290.324 -10.303 276.435 -1.69839C265.607 4.8111 256.658 13.5627 249.584 24.1432C245.542 30.158 242.327 36.5773 238.698 42.7928C237.084 45.4889 237.522 47.7455 239.406 50.3979C252.38 68.3507 263.72 87.1458 273.63 106.781C289.01 136.638 301.733 167.762 309.332 200.596C313.023 216.602 315.275 232.624 314.445 249.096C313.927 257.334 312.584 265.376 308.763 272.831C302.53 284.84 291.055 288.889 278.644 283.483C275.127 282.084 271.811 280.066 268.9 277.632C264.327 273.778 260.163 269.713 256.403 265.232C248.053 255.249 241.535 243.804 236.248 231.932C217.432 190.387 209.293 146.86 213.063 101.132C214.505 84.2417 218.007 67.5316 223.782 51.6157C224.579 49.3431 224.966 47.4866 223.089 45.2459C208.666 26.6937 193.433 9.18183 175.145 -5.61948C164.754 -14.1368 153.757 -21.6182 141.552 -27.0263C134.516 -30.233 127.079 -32.6148 119.454 -33.5503C99.8729 -36.1955 83.9003 -29.8286 71.1156 -14.8585C61.9872 -4.04816 56.9967 8.77004 53.8699 22.3899C49.767 40.5478 49.5764 58.8643 51.6512 77.3598C53.7347 96.4722 58.0733 114.938 64.0561 133.181C64.2729 134.207 64.6949 135.024 65.3234 136.046C66.5587 136.033 67.5888 136.225 68.616 136.006C80.7372 134.419 92.2809 136.133 103.251 141.35C110.494 144.761 117.743 148.584 124.178 153.239C151.584 173.279 171.038 199.59 183.15 231.338C185.913 238.713 187.86 246.509 187.955 254.33C187.984 256.797 188.014 259.266 187.838 261.738C186.171 276.986 175.15 284.527 160.296 281.412C154.107 280.047 148.517 277.233 143.33 273.798C135.036 268.549 127.751 261.846 120.874 254.52C103.573 236.209 89.9428 215.179 78.7658 192.68C72.4426 180.202 67.3458 167.094 61.6351 154.406C60.3838 152.98 59.7466 151.342 59.1064 149.497ZM572.147 101.324C568.709 106.305 565.674 110.661 562.642 115.227C552.943 129.954 543.658 144.882 537.477 161.419C525.721 193.25 523.643 225.582 533.09 258.187C536.53 270.286 542.013 281.537 550.362 291.108C554.328 295.793 558.697 299.857 564.491 302.461C572.766 306.065 580.579 305.559 587.503 299.508C590.759 296.589 594.012 293.256 596.022 289.322C599.041 283.73 601.644 277.731 603.422 271.536C608.353 253.986 608.958 235.87 607.506 217.779C604.353 178.308 593.202 140.991 575.082 105.816C574.244 104.591 573.199 103.369 572.147 101.324ZM231.893 58.7203C231.294 60.1695 230.891 60.7907 230.694 61.6157C226.932 73.8024 224.404 86.1798 223.117 98.7463C220.005 130.681 223.264 162.126 232.074 192.885C238.084 213.596 246.142 233.253 258.496 251.008C262.475 256.721 267.272 262.013 272.27 266.892C275.392 269.941 279.329 272.156 283.466 273.958C289.464 276.561 294.584 274.441 297.81 268.847C299.422 266.153 300.417 263.26 301.203 260.164C303.564 251.287 303.662 242.23 302.934 233.186C301.945 219.41 299.518 205.859 295.654 192.529C282.531 145.36 261.225 101.991 233.982 61.3713C233.565 60.7587 232.938 59.9425 231.893 58.7203ZM397.993 44.7803C397.185 46.0243 396.372 46.858 395.973 47.891C393.766 52.6502 391.147 57.2101 389.355 62.1686C378.185 91.5253 377.108 121.582 384.06 151.953C387.53 166.728 392.839 180.45 401.633 192.895C405.612 198.609 410.201 203.698 416.215 207.535C426.165 213.589 434.987 211.426 440.831 201.271C444.057 195.677 445.42 189.28 446.165 182.892C448.055 168.877 446.239 154.906 443.194 141.155C435.577 106.884 420.594 75.9921 400.29 47.6335C399.87 46.8144 399.037 46.0025 397.993 44.7803ZM68.3308 146.505C68.76 147.941 68.9783 148.966 69.1936 149.786C80.6645 179.485 95.2039 207.707 114.647 232.99C122.799 243.592 131.562 253.569 142.361 261.67C147.139 265.316 152.528 268.543 158.109 270.74C170.102 275.534 177.24 270.302 177.496 257.335C177.603 249.102 175.657 241.308 172.685 233.729C161.645 205.671 144.488 182.214 120.804 163.568C112.08 156.677 102.547 151.235 91.808 148.074C84.3746 145.899 76.7507 145.168 68.3308 146.505Z"/>
</mask>
<path d="M59.1064 149.497C56.857 150.553 55.0136 151.398 53.1759 152.45C43.7769 158.119 36.8775 166.022 31.0213 175.353C22.9477 188.414 18.1814 202.67 15.0688 217.524C10.0144 242.072 9.90356 266.972 13.2879 291.625C18.2562 328.193 29.9881 362.417 47.8664 394.508C57.9607 412.494 69.6838 429.021 84.669 443.039C90.0804 448.118 95.8958 452.574 101.914 456.822C105.443 459.25 109.78 460.637 113.915 462.234C115.363 462.835 116.81 463.434 116.831 465.08C116.639 466.316 116.042 467.97 115.229 468.803C113.195 470.68 110.519 470.712 108.243 469.71C103.49 467.917 98.5332 466.535 94.3833 463.704C87.5396 459.26 81.1 454.194 75.0628 448.504C63.2086 438.153 53.3855 425.514 44.9917 412.034C15.8184 364.851 0.177873 313.596 -0.0840206 257.833C-0.177575 232.936 3.64418 208.608 13.6549 185.645C22.4661 165.578 34.6106 148.763 55.6916 139.249C55.2565 137.403 54.6208 135.763 54.1886 134.124C47.7664 113.417 43.1862 92.0724 41.6876 70.2771C40.1992 49.1001 41.3864 28.0963 48.1374 7.84909C50.3242 1.4429 53.1294 -4.76397 56.3521 -10.5649C72.6797 -38.7475 100.532 -49.7833 131.915 -41.1089C143.271 -37.9531 153.623 -32.7283 163.575 -26.4691C182.861 -14.1499 199.308 1.49672 214.33 18.5998C218.502 23.2833 222.266 28.1763 226.438 33.065C227.274 34.0835 228.107 34.8968 229.36 36.3212C230.365 34.4574 231.375 32.7987 232.18 31.3481C239.625 17.2656 249.143 4.59869 261.782 -5.22666C277.478 -17.556 295.303 -23.9447 315.482 -22.9539C327.426 -22.2744 338.37 -19.1143 349.134 -13.8939C366.107 -5.66169 380.242 6.30828 392.963 20.1464C394.63 21.9797 396.299 23.8114 398.179 26.0521C399.602 24.5942 400.818 23.1392 402.039 21.8894C414.021 8.78169 428.314 -0.445663 446.183 -3.33667C459.119 -5.54966 471.692 -3.85025 484.089 0.322575C499.999 5.68701 513.685 14.3688 526.367 25.1209C544.037 39.9309 558.652 57.4501 571.028 76.8506C572.074 78.2779 573.123 79.9118 574.379 81.7494C575.799 80.0849 576.813 78.838 578.03 77.3831C589.989 62.2166 602.57 47.6597 617.235 35.1368C623.957 29.2937 631.095 24.0646 638.442 19.0363C643.747 15.2679 649.887 12.518 656.456 11.2042C661.381 10.1173 664.475 10.6964 668 12.9181C667.796 13.1247 667.597 13.5394 667.597 13.5394C661.213 13.2048 655.688 15.7408 650.375 18.8922C642.203 23.7227 635.073 29.7768 628.361 36.2383C611.069 52.7011 595.651 70.9973 581.271 90.1023C581.07 90.5155 580.868 90.9302 580.262 91.761C580.894 92.9875 581.529 94.4192 582.37 95.8509C601.527 131.63 613.51 169.761 617.702 210.042C620.017 231.414 619.657 252.82 613.942 273.672C611.974 281.104 609.176 287.928 605.346 294.56C602.319 299.535 598.667 303.901 594.183 307.453C583.988 315.189 572.892 316.559 561.305 311.349C553.237 307.741 547.198 301.847 541.765 294.916C530.687 280.645 524.317 264.466 520.815 247.017C513.348 208.009 519.278 170.899 538.615 136.3C546.269 122.625 555.577 109.549 564.059 96.2772C565.072 94.8251 566.083 93.3716 567.094 91.9181C566.882 91.3042 566.876 90.8938 566.665 90.485C552.389 66.9932 535.26 45.7988 513.245 28.9838C500.783 19.464 487.522 12.0088 472.046 8.49216C446.463 2.83382 422.09 12.3871 405.487 34.8124C406.325 36.0375 407.373 37.6699 408.421 39.0987C428.928 67.4544 444.115 98.1366 452.551 132.194C456.014 146.351 458.243 160.522 457.595 175.14C457.287 183.582 456.359 192.03 452.954 199.686C451.154 204.029 448.737 208.378 445.694 211.913C438.797 220.227 428.743 222.613 418.41 219.034C412.622 216.84 407.642 213.401 403.268 209.133C395.774 201.816 390.111 193.036 385.677 183.623C375.121 161.526 370.516 138.123 370.635 113.84C370.72 86.6759 376.583 61.089 390.702 37.4604C390.904 37.0457 391.105 36.6325 391.505 35.8047C390.67 34.7862 389.832 33.5611 388.997 32.5426C378.979 20.9335 367.74 10.369 354.677 2.09032C344.516 -4.37261 333.759 -8.97462 321.801 -10.8879C305.513 -13.5723 290.324 -10.303 276.435 -1.69839C265.607 4.8111 256.658 13.5627 249.584 24.1432C245.542 30.158 242.327 36.5773 238.698 42.7928C237.084 45.4889 237.522 47.7455 239.406 50.3979C252.38 68.3507 263.72 87.1458 273.63 106.781C289.01 136.638 301.733 167.762 309.332 200.596C313.023 216.602 315.275 232.624 314.445 249.096C313.927 257.334 312.584 265.376 308.763 272.831C302.53 284.84 291.055 288.889 278.644 283.483C275.127 282.084 271.811 280.066 268.9 277.632C264.327 273.778 260.163 269.713 256.403 265.232C248.053 255.249 241.535 243.804 236.248 231.932C217.432 190.387 209.293 146.86 213.063 101.132C214.505 84.2417 218.007 67.5316 223.782 51.6157C224.579 49.3431 224.966 47.4866 223.089 45.2459C208.666 26.6937 193.433 9.18183 175.145 -5.61948C164.754 -14.1368 153.757 -21.6182 141.552 -27.0263C134.516 -30.233 127.079 -32.6148 119.454 -33.5503C99.8729 -36.1955 83.9003 -29.8286 71.1156 -14.8585C61.9872 -4.04816 56.9967 8.77004 53.8699 22.3899C49.767 40.5478 49.5764 58.8643 51.6512 77.3598C53.7347 96.4722 58.0733 114.938 64.0561 133.181C64.2729 134.207 64.6949 135.024 65.3234 136.046C66.5587 136.033 67.5888 136.225 68.616 136.006C80.7372 134.419 92.2809 136.133 103.251 141.35C110.494 144.761 117.743 148.584 124.178 153.239C151.584 173.279 171.038 199.59 183.15 231.338C185.913 238.713 187.86 246.509 187.955 254.33C187.984 256.797 188.014 259.266 187.838 261.738C186.171 276.986 175.15 284.527 160.296 281.412C154.107 280.047 148.517 277.233 143.33 273.798C135.036 268.549 127.751 261.846 120.874 254.52C103.573 236.209 89.9428 215.179 78.7658 192.68C72.4426 180.202 67.3458 167.094 61.6351 154.406C60.3838 152.98 59.7466 151.342 59.1064 149.497ZM572.147 101.324C568.709 106.305 565.674 110.661 562.642 115.227C552.943 129.954 543.658 144.882 537.477 161.419C525.721 193.25 523.643 225.582 533.09 258.187C536.53 270.286 542.013 281.537 550.362 291.108C554.328 295.793 558.697 299.857 564.491 302.461C572.766 306.065 580.579 305.559 587.503 299.508C590.759 296.589 594.012 293.256 596.022 289.322C599.041 283.73 601.644 277.731 603.422 271.536C608.353 253.986 608.958 235.87 607.506 217.779C604.353 178.308 593.202 140.991 575.082 105.816C574.244 104.591 573.199 103.369 572.147 101.324ZM231.893 58.7203C231.294 60.1695 230.891 60.7907 230.694 61.6157C226.932 73.8024 224.404 86.1798 223.117 98.7463C220.005 130.681 223.264 162.126 232.074 192.885C238.084 213.596 246.142 233.253 258.496 251.008C262.475 256.721 267.272 262.013 272.27 266.892C275.392 269.941 279.329 272.156 283.466 273.958C289.464 276.561 294.584 274.441 297.81 268.847C299.422 266.153 300.417 263.26 301.203 260.164C303.564 251.287 303.662 242.23 302.934 233.186C301.945 219.41 299.518 205.859 295.654 192.529C282.531 145.36 261.225 101.991 233.982 61.3713C233.565 60.7587 232.938 59.9425 231.893 58.7203ZM397.993 44.7803C397.185 46.0243 396.372 46.858 395.973 47.891C393.766 52.6502 391.147 57.2101 389.355 62.1686C378.185 91.5253 377.108 121.582 384.06 151.953C387.53 166.728 392.839 180.45 401.633 192.895C405.612 198.609 410.201 203.698 416.215 207.535C426.165 213.589 434.987 211.426 440.831 201.271C444.057 195.677 445.42 189.28 446.165 182.892C448.055 168.877 446.239 154.906 443.194 141.155C435.577 106.884 420.594 75.9921 400.29 47.6335C399.87 46.8144 399.037 46.0025 397.993 44.7803ZM68.3308 146.505C68.76 147.941 68.9783 148.966 69.1936 149.786C80.6645 179.485 95.2039 207.707 114.647 232.99C122.799 243.592 131.562 253.569 142.361 261.67C147.139 265.316 152.528 268.543 158.109 270.74C170.102 275.534 177.24 270.302 177.496 257.335C177.603 249.102 175.657 241.308 172.685 233.729C161.645 205.671 144.488 182.214 120.804 163.568C112.08 156.677 102.547 151.235 91.808 148.074C84.3746 145.899 76.7507 145.168 68.3308 146.505Z" fill="#003B21"/>
<path d="M59.1064 149.497C56.857 150.553 55.0136 151.398 53.1759 152.45C43.7769 158.119 36.8775 166.022 31.0213 175.353C22.9477 188.414 18.1814 202.67 15.0688 217.524C10.0144 242.072 9.90356 266.972 13.2879 291.625C18.2562 328.193 29.9881 362.417 47.8664 394.508C57.9607 412.494 69.6838 429.021 84.669 443.039C90.0804 448.118 95.8958 452.574 101.914 456.822C105.443 459.25 109.78 460.637 113.915 462.234C115.363 462.835 116.81 463.434 116.831 465.08C116.639 466.316 116.042 467.97 115.229 468.803C113.195 470.68 110.519 470.712 108.243 469.71C103.49 467.917 98.5332 466.535 94.3833 463.704C87.5396 459.26 81.1 454.194 75.0628 448.504C63.2086 438.153 53.3855 425.514 44.9917 412.034C15.8184 364.851 0.177873 313.596 -0.0840206 257.833C-0.177575 232.936 3.64418 208.608 13.6549 185.645C22.4661 165.578 34.6106 148.763 55.6916 139.249C55.2565 137.403 54.6208 135.763 54.1886 134.124C47.7664 113.417 43.1862 92.0724 41.6876 70.2771C40.1992 49.1001 41.3864 28.0963 48.1374 7.84909C50.3242 1.4429 53.1294 -4.76397 56.3521 -10.5649C72.6797 -38.7475 100.532 -49.7833 131.915 -41.1089C143.271 -37.9531 153.623 -32.7283 163.575 -26.4691C182.861 -14.1499 199.308 1.49672 214.33 18.5998C218.502 23.2833 222.266 28.1763 226.438 33.065C227.274 34.0835 228.107 34.8968 229.36 36.3212C230.365 34.4574 231.375 32.7987 232.18 31.3481C239.625 17.2656 249.143 4.59869 261.782 -5.22666C277.478 -17.556 295.303 -23.9447 315.482 -22.9539C327.426 -22.2744 338.37 -19.1143 349.134 -13.8939C366.107 -5.66169 380.242 6.30828 392.963 20.1464C394.63 21.9797 396.299 23.8114 398.179 26.0521C399.602 24.5942 400.818 23.1392 402.039 21.8894C414.021 8.78169 428.314 -0.445663 446.183 -3.33667C459.119 -5.54966 471.692 -3.85025 484.089 0.322575C499.999 5.68701 513.685 14.3688 526.367 25.1209C544.037 39.9309 558.652 57.4501 571.028 76.8506C572.074 78.2779 573.123 79.9118 574.379 81.7494C575.799 80.0849 576.813 78.838 578.03 77.3831C589.989 62.2166 602.57 47.6597 617.235 35.1368C623.957 29.2937 631.095 24.0646 638.442 19.0363C643.747 15.2679 649.887 12.518 656.456 11.2042C661.381 10.1173 664.475 10.6964 668 12.9181C667.796 13.1247 667.597 13.5394 667.597 13.5394C661.213 13.2048 655.688 15.7408 650.375 18.8922C642.203 23.7227 635.073 29.7768 628.361 36.2383C611.069 52.7011 595.651 70.9973 581.271 90.1023C581.07 90.5155 580.868 90.9302 580.262 91.761C580.894 92.9875 581.529 94.4192 582.37 95.8509C601.527 131.63 613.51 169.761 617.702 210.042C620.017 231.414 619.657 252.82 613.942 273.672C611.974 281.104 609.176 287.928 605.346 294.56C602.319 299.535 598.667 303.901 594.183 307.453C583.988 315.189 572.892 316.559 561.305 311.349C553.237 307.741 547.198 301.847 541.765 294.916C530.687 280.645 524.317 264.466 520.815 247.017C513.348 208.009 519.278 170.899 538.615 136.3C546.269 122.625 555.577 109.549 564.059 96.2772C565.072 94.8251 566.083 93.3716 567.094 91.9181C566.882 91.3042 566.876 90.8938 566.665 90.485C552.389 66.9932 535.26 45.7988 513.245 28.9838C500.783 19.464 487.522 12.0088 472.046 8.49216C446.463 2.83382 422.09 12.3871 405.487 34.8124C406.325 36.0375 407.373 37.6699 408.421 39.0987C428.928 67.4544 444.115 98.1366 452.551 132.194C456.014 146.351 458.243 160.522 457.595 175.14C457.287 183.582 456.359 192.03 452.954 199.686C451.154 204.029 448.737 208.378 445.694 211.913C438.797 220.227 428.743 222.613 418.41 219.034C412.622 216.84 407.642 213.401 403.268 209.133C395.774 201.816 390.111 193.036 385.677 183.623C375.121 161.526 370.516 138.123 370.635 113.84C370.72 86.6759 376.583 61.089 390.702 37.4604C390.904 37.0457 391.105 36.6325 391.505 35.8047C390.67 34.7862 389.832 33.5611 388.997 32.5426C378.979 20.9335 367.74 10.369 354.677 2.09032C344.516 -4.37261 333.759 -8.97462 321.801 -10.8879C305.513 -13.5723 290.324 -10.303 276.435 -1.69839C265.607 4.8111 256.658 13.5627 249.584 24.1432C245.542 30.158 242.327 36.5773 238.698 42.7928C237.084 45.4889 237.522 47.7455 239.406 50.3979C252.38 68.3507 263.72 87.1458 273.63 106.781C289.01 136.638 301.733 167.762 309.332 200.596C313.023 216.602 315.275 232.624 314.445 249.096C313.927 257.334 312.584 265.376 308.763 272.831C302.53 284.84 291.055 288.889 278.644 283.483C275.127 282.084 271.811 280.066 268.9 277.632C264.327 273.778 260.163 269.713 256.403 265.232C248.053 255.249 241.535 243.804 236.248 231.932C217.432 190.387 209.293 146.86 213.063 101.132C214.505 84.2417 218.007 67.5316 223.782 51.6157C224.579 49.3431 224.966 47.4866 223.089 45.2459C208.666 26.6937 193.433 9.18183 175.145 -5.61948C164.754 -14.1368 153.757 -21.6182 141.552 -27.0263C134.516 -30.233 127.079 -32.6148 119.454 -33.5503C99.8729 -36.1955 83.9003 -29.8286 71.1156 -14.8585C61.9872 -4.04816 56.9967 8.77004 53.8699 22.3899C49.767 40.5478 49.5764 58.8643 51.6512 77.3598C53.7347 96.4722 58.0733 114.938 64.0561 133.181C64.2729 134.207 64.6949 135.024 65.3234 136.046C66.5587 136.033 67.5888 136.225 68.616 136.006C80.7372 134.419 92.2809 136.133 103.251 141.35C110.494 144.761 117.743 148.584 124.178 153.239C151.584 173.279 171.038 199.59 183.15 231.338C185.913 238.713 187.86 246.509 187.955 254.33C187.984 256.797 188.014 259.266 187.838 261.738C186.171 276.986 175.15 284.527 160.296 281.412C154.107 280.047 148.517 277.233 143.33 273.798C135.036 268.549 127.751 261.846 120.874 254.52C103.573 236.209 89.9428 215.179 78.7658 192.68C72.4426 180.202 67.3458 167.094 61.6351 154.406C60.3838 152.98 59.7466 151.342 59.1064 149.497ZM572.147 101.324C568.709 106.305 565.674 110.661 562.642 115.227C552.943 129.954 543.658 144.882 537.477 161.419C525.721 193.25 523.643 225.582 533.09 258.187C536.53 270.286 542.013 281.537 550.362 291.108C554.328 295.793 558.697 299.857 564.491 302.461C572.766 306.065 580.579 305.559 587.503 299.508C590.759 296.589 594.012 293.256 596.022 289.322C599.041 283.73 601.644 277.731 603.422 271.536C608.353 253.986 608.958 235.87 607.506 217.779C604.353 178.308 593.202 140.991 575.082 105.816C574.244 104.591 573.199 103.369 572.147 101.324ZM231.893 58.7203C231.294 60.1695 230.891 60.7907 230.694 61.6157C226.932 73.8024 224.404 86.1798 223.117 98.7463C220.005 130.681 223.264 162.126 232.074 192.885C238.084 213.596 246.142 233.253 258.496 251.008C262.475 256.721 267.272 262.013 272.27 266.892C275.392 269.941 279.329 272.156 283.466 273.958C289.464 276.561 294.584 274.441 297.81 268.847C299.422 266.153 300.417 263.26 301.203 260.164C303.564 251.287 303.662 242.23 302.934 233.186C301.945 219.41 299.518 205.859 295.654 192.529C282.531 145.36 261.225 101.991 233.982 61.3713C233.565 60.7587 232.938 59.9425 231.893 58.7203ZM397.993 44.7803C397.185 46.0243 396.372 46.858 395.973 47.891C393.766 52.6502 391.147 57.2101 389.355 62.1686C378.185 91.5253 377.108 121.582 384.06 151.953C387.53 166.728 392.839 180.45 401.633 192.895C405.612 198.609 410.201 203.698 416.215 207.535C426.165 213.589 434.987 211.426 440.831 201.271C444.057 195.677 445.42 189.28 446.165 182.892C448.055 168.877 446.239 154.906 443.194 141.155C435.577 106.884 420.594 75.9921 400.29 47.6335C399.87 46.8144 399.037 46.0025 397.993 44.7803ZM68.3308 146.505C68.76 147.941 68.9783 148.966 69.1936 149.786C80.6645 179.485 95.2039 207.707 114.647 232.99C122.799 243.592 131.562 253.569 142.361 261.67C147.139 265.316 152.528 268.543 158.109 270.74C170.102 275.534 177.24 270.302 177.496 257.335C177.603 249.102 175.657 241.308 172.685 233.729C161.645 205.671 144.488 182.214 120.804 163.568C112.08 156.677 102.547 151.235 91.808 148.074C84.3746 145.899 76.7507 145.168 68.3308 146.505Z" stroke="#003B21" stroke-width="16" mask="url(#path-1-outside-1_3163_89437)"/>
</svg>
