<svg width="38" height="40" viewBox="0 0 38 40" fill="none" xmlns="http://www.w3.org/2000/svg">
<g id="Group">
<path id="Vector" d="M19.0967 0H19.127C19.4718 0.426574 19.8671 0.809474 20.3044 1.14024C21.0173 1.6992 21.8061 2.14119 22.6145 2.54746C23.815 3.14928 25.0271 3.72878 26.1794 4.42256C26.4673 4.59668 26.74 4.79312 27.0101 4.99224C27.0413 5.01545 27.0734 5.03688 27.1054 5.05831C27.3193 5.20028 27.4486 5.18243 27.6197 4.9842C27.7296 4.85265 27.8523 4.7324 27.986 4.62525C28.4209 4.29131 28.8354 4.31363 29.24 4.69044C29.5314 4.95831 29.756 5.28779 29.9868 5.60745C31.2569 7.36379 32.2818 9.26033 33.2114 11.214C33.4404 11.6953 33.6926 12.1658 33.919 12.6489C34.0251 12.8748 34.1712 12.9052 34.37 12.7489C34.5527 12.606 34.7176 12.4409 34.8994 12.2971C35.2479 12.023 35.2728 12.0292 35.4662 12.406C36.1206 13.6784 36.5431 15.0575 36.714 16.4786C36.91 18.1483 36.7202 19.7823 36.2683 21.3896C36.1976 21.6159 36.1437 21.8472 36.107 22.0816C36.0696 22.3682 36.1739 22.5736 36.4341 22.6959C36.4981 22.7245 36.5639 22.749 36.6311 22.7691C36.7514 22.8076 36.8574 22.8813 36.9354 22.9808C37.0134 23.0803 37.0598 23.201 37.0687 23.3272C37.0999 23.8629 36.9653 24.3594 36.7746 24.8451C35.9661 26.9153 34.8596 28.8559 33.4903 30.6052C33.4012 30.7213 33.2657 30.7838 33.1543 30.8731C32.6445 31.2821 32.3246 31.8178 32.108 32.425C31.9351 32.9098 31.8326 33.4143 31.7078 33.9126C31.502 34.7376 31.1526 35.485 30.5323 36.0859C30.0399 36.5656 29.4218 36.8957 28.7498 37.0377C27.8843 37.2234 27.1012 37.6829 26.5163 38.3485C26.0534 38.8793 25.4762 39.2979 24.8283 39.5727C24.0431 39.8941 23.2241 39.9459 22.3997 39.8281C21.4995 39.7004 20.6234 39.4566 19.7447 39.2316C18.5246 38.9178 17.2405 38.9596 16.0433 39.3522C15.1494 39.6401 14.2317 39.8475 13.3009 39.9718C12.8665 40.0289 12.425 39.9991 12.002 39.8843C11.5791 39.7695 11.183 39.572 10.8367 39.303C10.3349 38.9102 9.86965 38.4744 9.3866 38.0601C8.8676 37.6049 8.24668 37.2817 7.57648 37.1181C7.11492 37.0186 6.68096 36.8183 6.30556 36.5315C5.83879 36.1705 5.53115 35.6412 5.44818 35.0564C5.21735 33.6438 4.67904 32.3545 3.91881 31.1499C3.47318 30.4472 2.94378 29.8106 2.43756 29.1507C1.48838 27.9167 0.866293 26.5184 0.439386 25.0273C0.270941 24.4379 0.138145 23.8406 0.026739 23.2414C0.0205003 23.2084 0.00891245 23.1754 0 23.1423V22.7566C0.106949 22.378 0.390367 22.2343 0.75043 22.1932L0.794992 22.1878C1.17021 22.1325 1.28161 21.9762 1.19427 21.6048C1.14525 21.3985 1.08108 21.1958 1.01602 20.994C0.56416 19.6163 0.298569 18.2162 0.402845 16.7545C0.468797 15.841 0.604267 14.9481 0.926897 14.0901C1.09833 13.6099 1.33269 13.1547 1.62385 12.7364C1.89122 12.3659 2.1586 12.3025 2.57392 12.5025C2.70828 12.5645 2.83865 12.6349 2.96428 12.7132C3.07925 12.7873 3.14253 12.7811 3.19422 12.6453C3.29583 12.3882 3.41347 12.1373 3.5222 11.8828C4.04358 10.6604 4.54892 9.43087 5.21111 8.27456C5.74051 7.3504 6.32339 6.46464 7.04975 5.68513C7.59932 5.08295 8.22912 4.55954 8.92137 4.12969C9.31084 3.89128 9.46948 3.92254 9.73686 4.29756C9.88302 4.50293 10.0123 4.7199 10.1584 4.92259C10.1851 4.96185 10.22 4.99478 10.2607 5.01907C10.3014 5.04336 10.3469 5.05841 10.3941 5.06318C10.4412 5.06795 10.4889 5.0623 10.5336 5.04665C10.5783 5.031 10.6191 5.00573 10.6531 4.97259C10.8527 4.78866 11.0452 4.59668 11.244 4.41096C12.1179 3.59922 13.1389 2.96272 14.2519 2.53585C14.8285 2.31084 15.4346 2.18673 16.0192 1.99029C17.2144 1.58223 18.2634 0.960767 19.0967 0ZM35.378 17.8581C35.3874 17.4614 35.3647 17.0645 35.3102 16.6714C35.2405 16.0673 35.1091 15.4719 34.9181 14.8946C34.8085 14.5847 34.6507 14.5213 34.3388 14.641C34.122 14.7249 33.9131 14.8283 33.7149 14.9499C33.608 15.0151 33.5572 14.9928 33.5046 14.8785C33.2372 14.2945 32.9698 13.7106 32.6855 13.1346C31.8014 11.3399 30.8344 9.58713 29.9343 7.80043C29.7097 7.35397 29.4548 6.92359 29.0938 6.56911C28.9735 6.45125 28.8461 6.31017 28.6625 6.36106C28.4789 6.41196 28.4468 6.60661 28.4129 6.76823C28.3487 7.07271 28.2997 7.37987 28.2427 7.68613C28.2347 7.72721 28.2427 7.78525 28.1883 7.79686C28.1339 7.80846 28.1224 7.75935 28.0992 7.73257C27.7953 7.42094 27.4753 7.12718 27.1429 6.8468C25.7427 5.66727 24.167 4.77258 22.5137 4.00379C21.9549 3.74395 21.381 3.51626 20.8391 3.21982C20.2747 2.92275 19.756 2.54563 19.299 2.10011C19.0914 1.89028 18.9684 1.86885 18.75 1.98404C17.5495 2.618 16.3205 3.19393 15.0781 3.73949C13.7912 4.29027 12.5905 5.02438 11.5131 5.91908C10.8456 6.48161 10.2128 7.0861 9.53633 7.63881C9.50335 7.6656 9.47572 7.72274 9.42849 7.69864C9.38125 7.67453 9.40442 7.61827 9.40442 7.57631C9.40442 7.26468 9.40442 6.95127 9.40442 6.64233C9.41141 6.43354 9.36606 6.22632 9.27252 6.03962C9.25415 5.99726 9.22717 5.9592 9.1933 5.92788C9.15943 5.89656 9.11941 5.87265 9.0758 5.8577C9.03219 5.84274 8.98594 5.83706 8.94002 5.84102C8.89409 5.84497 8.84949 5.85848 8.80907 5.88068C8.68277 5.93744 8.56821 6.01739 8.47129 6.11641C8.24937 6.34033 8.04104 6.57738 7.84742 6.82627C6.5355 8.44153 5.55068 10.2523 4.68706 12.1346C4.2762 13.0275 3.91257 13.9427 3.56231 14.8615C3.51418 14.9865 3.47318 14.9705 3.38406 14.8919C3.25811 14.765 3.12479 14.6458 2.98478 14.5347C2.5864 14.2311 2.37784 14.2936 2.19781 14.7633C2.07938 15.0881 1.98379 15.4208 1.91172 15.7589C1.62563 16.9983 1.56235 18.2439 1.83686 19.4912C2.07215 20.5627 2.48212 21.5869 2.78158 22.6414C2.83862 22.845 2.81812 22.9209 2.62205 22.9986C2.45716 23.0638 2.28694 23.1191 2.12651 23.1941C1.70852 23.3888 1.63544 23.5281 1.69248 23.987C1.69248 24.0165 1.70228 24.046 1.70852 24.0763C1.91133 25.0399 2.2313 25.9749 2.66126 26.8604C3.26253 28.0808 4.0487 29.2007 4.99187 30.1802C5.6658 30.8803 6.08949 31.7842 6.19683 32.7509C6.24251 33.1638 6.32423 33.572 6.44103 33.9706C6.66206 34.7055 7.11303 35.2332 7.82603 35.5332C8.13601 35.6744 8.46103 35.7799 8.79481 35.8475C9.04349 35.8806 9.28196 35.9677 9.4936 36.1027C9.70525 36.2376 9.88498 36.4171 10.0203 36.6288C10.3866 37.1761 10.9427 37.5217 11.514 37.8405C11.6767 37.94 11.8618 37.9967 12.0522 38.0053C12.2427 38.0139 12.4322 37.9741 12.6031 37.8896C13.2593 37.5798 13.9369 37.3178 14.6307 37.1056C16.0709 36.6566 17.5827 36.4834 19.0869 36.5949C20.3699 36.7046 21.6282 37.013 22.8168 37.5092C23.2089 37.6699 23.585 37.8664 23.9905 37.9994C24.9174 38.295 25.7098 37.9994 26.2258 37.1779C26.3595 36.9636 26.4566 36.7315 26.5769 36.5091C26.7739 36.1457 27.0609 35.902 27.4869 35.8537C27.5894 35.8421 27.6928 35.8341 27.7953 35.8198C28.7551 35.6787 29.5287 35.2448 30.0296 34.3858C30.2825 33.9317 30.4553 33.4372 30.5403 32.9241C30.7096 32.0205 31.0376 31.1847 31.6241 30.4686C31.8807 30.1561 32.174 29.8748 32.4342 29.565C33.083 28.7909 33.6347 27.9462 34.1819 27.1006C34.6472 26.38 35.0447 25.6237 35.2826 24.7942C35.3717 24.4817 35.4689 24.1692 35.4609 23.8361C35.4502 23.5763 35.3263 23.4486 35.0723 23.4245C35.0037 23.4182 34.935 23.4093 34.8664 23.3995C34.5028 23.345 34.3762 23.1682 34.4707 22.812C34.5491 22.5155 34.6489 22.2271 34.7381 21.9333C35.1258 20.6261 35.3949 19.3073 35.378 17.8581Z" fill="#49C4A2"/>
<path id="Vector_2" d="M6.35641 20.5965C6.35242 20.3129 6.40447 20.0314 6.50956 19.7682C6.61464 19.5049 6.77068 19.265 6.9687 19.0624C7.1924 18.8258 7.43839 18.6106 7.66744 18.3794C8.03641 18.0079 8.40004 17.632 8.76545 17.257C8.77957 17.2429 8.79212 17.2274 8.80288 17.2106C8.89201 17.0739 8.96152 16.9284 8.86527 16.7695C8.76901 16.6105 8.5979 16.6212 8.44104 16.6462C8.32555 16.67 8.21434 16.7112 8.11128 16.7686L7.22003 17.2106C7.18527 17.2284 7.14606 17.2632 7.1113 17.2382C7.07654 17.2132 7.09882 17.165 7.1113 17.1275C7.34051 16.2618 7.68781 15.4319 8.14336 14.6613C8.35158 14.3175 8.66378 14.0491 9.03461 13.8952C9.69591 13.6104 10.3536 13.3157 11.0105 13.0193C11.2342 12.9184 11.4383 12.7871 11.5114 12.5282C11.5273 12.4888 11.5343 12.4464 11.532 12.404C11.5297 12.3615 11.5181 12.3201 11.498 12.2827C11.4779 12.2453 11.4499 12.2128 11.4158 12.1875C11.3818 12.1621 11.3426 12.1446 11.301 12.1362C11.1434 12.0953 10.9816 12.0725 10.8189 12.0683C10.7111 12.0688 10.6058 12.0358 10.5176 11.9737C10.4437 11.9147 10.4187 11.8603 10.5016 11.7817C11.0132 11.3022 11.5185 10.8174 12.039 10.3468C12.9222 9.54764 13.9587 8.98065 14.9801 8.38686C16.161 7.69843 17.3464 7.01715 18.5299 6.33318L18.6333 6.27514C18.8873 6.14121 18.972 6.16174 19.1395 6.39926C19.4452 6.83142 19.8695 7.11894 20.3294 7.35467C21.453 7.93415 22.5205 8.61687 23.5182 9.39406C24.5262 10.1727 25.4906 11.0058 26.4745 11.8138C26.6697 11.9737 26.8657 12.1317 27.0609 12.2906C27.0895 12.3148 27.1367 12.3344 27.1215 12.3799C27.1099 12.4139 27.0672 12.4201 27.0324 12.4282C26.8244 12.4711 26.6118 12.4879 26.3996 12.4782C26.2508 12.4782 26.0957 12.4719 26.0333 12.6567C25.9709 12.8416 26.028 12.9773 26.1964 13.1077C26.3012 13.1825 26.4135 13.2463 26.5315 13.2978C26.6789 13.3671 26.8169 13.4547 26.9424 13.5586C27.0348 13.6412 27.1444 13.7022 27.2632 13.7372C28.3247 14.0104 29.0279 14.7194 29.5689 15.6283C29.8496 16.1007 30.0921 16.5927 30.3585 17.0713C30.3796 17.1048 30.395 17.1416 30.404 17.1802C30.4161 17.2129 30.4201 17.248 30.4156 17.2825C30.411 17.3171 30.3982 17.35 30.3781 17.3784C30.3202 17.4374 30.2587 17.374 30.2044 17.3499C29.8247 17.182 29.4477 17.0106 29.06 16.8614C28.9971 16.8334 28.9299 16.8162 28.8612 16.8105C28.8207 16.8043 28.7792 16.8082 28.7406 16.822C28.7019 16.8358 28.6673 16.8591 28.6399 16.8897C28.6125 16.9202 28.5931 16.9572 28.5835 16.9972C28.5739 17.0371 28.5744 17.0789 28.585 17.1186C28.6007 17.2114 28.635 17.3001 28.6857 17.3793C29.1148 18.1016 29.5859 18.7981 30.0965 19.4652C30.5614 20.0259 30.8223 20.7284 30.8362 21.4572C30.8394 21.655 30.8214 21.8526 30.7828 22.0465C30.6936 22.4778 30.7248 22.9127 30.7462 23.3466C30.7706 23.657 30.7682 23.9689 30.7391 24.2788C30.7391 24.3118 30.7444 24.3574 30.7079 24.3681C30.6714 24.3788 30.6393 24.3395 30.6125 24.3136C30.4028 24.1041 30.1948 23.894 29.9887 23.6832C29.9003 23.5895 29.7943 23.5143 29.6767 23.4618C29.6258 23.4358 29.569 23.4236 29.5118 23.4262C29.4547 23.4288 29.3993 23.4462 29.3509 23.4767C29.3025 23.5072 29.2628 23.5497 29.2357 23.6002C29.2086 23.6506 29.1951 23.7072 29.1964 23.7645C29.1816 24.2213 29.2732 24.6752 29.4637 25.0905C29.7801 25.8048 29.7819 26.4896 29.3434 27.1504C29.2017 27.3647 29.0368 27.5629 28.8764 27.7629C27.8016 29.1059 26.6667 30.3952 25.4718 31.631C25.0699 32.0462 24.6564 32.4498 24.2562 32.8659C24.1014 33.0362 23.9047 33.1628 23.6857 33.2329C23.4667 33.3029 23.2331 33.314 23.0084 33.265C22.0218 33.0963 21.0299 32.9587 20.0326 32.8686C19.193 32.787 18.3491 32.7572 17.5059 32.7793C16.3473 32.815 15.2109 32.9998 14.0791 33.2347C13.9259 33.2722 13.7701 33.2972 13.6129 33.3097C13.4519 33.3188 13.2911 33.2894 13.1437 33.2239C12.9963 33.1583 12.8666 33.0586 12.7654 32.9329C11.4909 31.4691 10.2167 30.0056 8.94281 28.5424C8.62998 28.1853 8.30468 27.8281 8.07741 27.3995C7.67457 26.6361 7.70576 25.8816 8.15049 25.1583C8.37509 24.7913 8.45708 24.3895 8.52392 23.9806C8.5667 23.7207 8.46243 23.5502 8.25655 23.4627C8.0685 23.3841 7.87688 23.4511 7.71556 23.6556C7.48473 23.9466 7.29668 24.2663 7.09169 24.5744C7.06495 24.6136 7.04802 24.6788 6.99365 24.6753C6.93929 24.6717 6.92592 24.5985 6.90453 24.552C6.78243 24.2529 6.79669 23.927 6.7548 23.619C6.64072 22.7576 6.52605 21.8945 6.41078 21.0295C6.38241 20.8866 6.36424 20.7419 6.35641 20.5965ZM28.8087 21.0268C28.8301 20.0554 28.6367 18.8232 28.3523 17.8651C27.4174 14.7149 25.5004 12.3871 22.5396 10.9504C21.0379 10.2218 19.4399 9.97981 17.7848 10.1468C16.4447 10.2898 15.1513 10.7218 13.9935 11.4129C12.2422 12.4362 10.8438 13.8122 9.86346 15.5998C9.08626 17.0234 8.64137 18.6051 8.56225 20.2259C8.51264 21.1203 8.55025 22.0175 8.67454 22.9046C9.02968 25.7241 10.4559 28.2978 12.6566 30.0907C14.2698 31.4238 16.1182 32.1819 18.2153 32.2837C19.3075 32.3347 20.3998 32.1834 21.4372 31.8373C23.1083 31.2833 24.6153 30.3209 25.8221 29.0371C26.4997 28.3245 27.0702 27.5169 27.5155 26.6396C28.3978 24.9306 28.8149 23.1082 28.8087 21.0268Z" fill="#49C4A2"/>
<path id="Vector_3" d="M9.34532 10.4289C9.33285 9.6726 9.65191 9.10292 10.1671 8.62522C10.919 7.91818 11.7128 7.25712 12.544 6.64564C13.8745 5.66746 15.3321 4.87588 16.8763 4.29284C17.2328 4.16158 17.5421 3.94907 17.8638 3.75709C18.04 3.64795 18.2252 3.55415 18.4173 3.47672C18.5886 3.40404 18.7755 3.37607 18.9605 3.39543C19.1455 3.41479 19.3226 3.48086 19.4752 3.58744C19.6479 3.70194 19.8115 3.82971 19.9645 3.96961C20.3021 4.27415 20.6856 4.52337 21.1009 4.70804C22.9177 5.54765 24.6133 6.62887 26.1417 7.9225C26.525 8.24216 26.9002 8.56896 27.2576 8.91809C27.8128 9.46008 28.0508 10.1307 28.0953 10.8869C28.1051 11.0495 28.1132 11.2129 28.1203 11.3754C28.1203 11.4084 28.1328 11.4504 28.0936 11.4647C28.0543 11.4789 28.0294 11.4468 28.0044 11.4254C27.6164 11.0896 27.2302 10.753 26.8458 10.4155C25.992 9.66813 25.1828 8.86898 24.2764 8.18323C23.1879 7.34477 22.0099 6.62994 20.764 6.05186C20.2607 5.80965 19.7934 5.49863 19.3754 5.1277C19.338 5.09645 19.3014 5.06252 19.2631 5.03216C18.9066 4.75179 18.6446 4.73215 18.256 4.95895C17.7807 5.23753 17.2958 5.50302 16.8015 5.75542C16.0546 6.13758 15.3063 6.51677 14.5564 6.89298C13.5761 7.38229 12.708 8.02786 11.8872 8.74576C11.0663 9.46366 10.3293 10.2726 9.57972 11.0673C9.54853 11.1004 9.52803 11.1673 9.46832 11.1459C9.42375 11.1298 9.4291 11.07 9.4193 11.028C9.36979 10.8322 9.34494 10.6309 9.34532 10.4289Z" fill="#49C4A2"/>
<path id="Vector_4" d="M9.2084 34.6339C8.5061 34.6339 8.09345 34.2767 7.76726 33.7829C7.36531 33.1731 7.18349 32.4864 7.10239 31.7748C7.02128 31.0631 6.77619 30.4354 6.29314 29.9059C5.77757 29.3263 5.31019 28.7055 4.89567 28.0496C4.39828 27.2767 3.97 26.4612 3.61584 25.6128C3.59623 25.5655 3.54186 25.511 3.5891 25.4646C3.63634 25.4182 3.67822 25.4717 3.72724 25.486C4.95538 25.8709 5.93486 26.595 6.75124 27.5942C8.31983 29.5139 9.86525 31.4515 11.441 33.365C11.7458 33.7356 11.6896 33.9008 11.236 34.0454C10.7556 34.1954 10.2824 34.366 9.80464 34.524C9.61092 34.5841 9.41078 34.6209 9.2084 34.6339Z" fill="#49C4A2"/>
<path id="Vector_5" d="M27.1658 34.6732C26.7902 34.6609 26.4187 34.591 26.0642 34.466C25.7078 34.3535 25.3513 34.2267 24.9948 34.1133C24.8718 34.074 24.8727 34.0339 24.9582 33.9481C26.4047 32.4999 27.7104 30.9292 28.9804 29.3256C29.7683 28.3309 30.5472 27.3281 31.3868 26.379C31.9439 25.7634 32.6559 25.3092 33.4482 25.0637C33.5837 25.0191 33.5748 25.0896 33.5525 25.1834C33.2851 26.361 32.7481 27.4602 31.9839 28.3943C31.655 28.797 31.2709 29.1479 30.9144 29.522C30.3235 30.1363 29.8921 30.8382 29.7415 31.6918C29.7121 31.8614 29.705 32.0364 29.6667 32.2043C29.4979 32.9774 29.0929 33.6787 28.508 34.2107C28.1328 34.5491 27.6658 34.6723 27.1658 34.6732Z" fill="#49C4A2"/>
<path id="Vector_6" d="M34.1687 18.4588C34.1803 19.5598 33.9726 20.6286 33.699 21.6885C33.6099 22.0457 33.5377 22.4109 33.4548 22.7716C33.2712 23.5645 32.7677 24.0288 31.9647 24.1556C31.855 24.1735 31.8194 24.1368 31.8256 24.0333C31.8708 23.2451 31.9154 22.4567 31.9593 21.668C31.9843 21.2215 32.0279 20.7804 32.0208 20.3375C32.0003 19.0366 32.5065 17.9588 33.3702 17.0231C33.5172 16.8641 33.6661 16.7052 33.8158 16.5507C33.9165 16.4471 33.9361 16.4534 33.9682 16.5936C34.1092 17.2051 34.1766 17.8313 34.1687 18.4588Z" fill="#49C4A2"/>
<path id="Vector_7" d="M4.54617 16.0721C4.5522 15.7077 4.64379 15.3498 4.81354 15.0274C5.43741 13.7211 5.98463 12.38 6.6504 11.0986C6.96768 10.4834 7.32596 9.89231 7.69939 9.31282C7.79986 9.15374 7.92571 9.01227 8.07193 8.89405C8.19225 8.79761 8.21988 8.80475 8.24573 8.95833C8.3579 9.55365 8.31929 10.1676 8.13343 10.7441C7.71651 11.9647 7.23759 13.163 6.69852 14.3345C6.26538 15.2977 5.82956 16.2602 5.39107 17.2222C5.30194 17.4177 5.30194 17.4168 5.14598 17.2668C5.00078 17.1327 4.87293 16.981 4.76541 16.815C4.62088 16.5944 4.54461 16.336 4.54617 16.0721Z" fill="#49C4A2"/>
<path id="Vector_8" d="M2.86138 17.2632C2.86138 17.0007 2.86138 16.7927 2.86138 16.5855C2.86138 16.5391 2.8391 16.4775 2.89168 16.4507C2.94426 16.4239 2.97367 16.4748 3.00843 16.4989C3.72143 16.9891 4.22587 17.624 4.44334 18.4785C4.76811 19.762 5.00631 21.0659 5.15633 22.3814C5.22763 23.0064 5.28824 23.6314 5.35508 24.2511C5.37201 24.4002 5.32567 24.5449 5.32656 24.6931C5.32702 24.7209 5.31863 24.7481 5.30259 24.7707C5.28656 24.7933 5.26374 24.8103 5.23744 24.819C5.16703 24.8422 5.14386 24.777 5.11355 24.7369C4.39225 23.7807 3.84275 22.7059 3.4897 21.5608C3.14397 20.4208 2.94216 19.2419 2.88901 18.0517C2.87207 17.7686 2.87029 17.4892 2.86138 17.2632Z" fill="#49C4A2"/>
<path id="Vector_9" d="M29.338 9.77C29.3364 9.7483 29.3364 9.72651 29.338 9.70481C29.3514 9.61999 29.2917 9.49498 29.3772 9.45927C29.4485 9.42891 29.5047 9.54856 29.5635 9.60392C29.8861 9.91286 30.0528 10.3182 30.2293 10.7147C30.9048 12.2404 31.5792 13.7669 32.2524 15.2944C32.2845 15.3667 32.3103 15.4417 32.3415 15.5132C32.5296 15.9105 32.469 16.2596 32.1428 16.5597C32.0046 16.6856 31.8674 16.8132 31.7292 16.9409C31.6677 16.9981 31.6214 17.0141 31.5724 16.9195C30.7025 15.223 29.879 13.5015 29.5225 11.6031C29.4127 10.9979 29.351 10.385 29.338 9.77Z" fill="#49C4A2"/>
<path id="Vector_10" d="M14.1299 36.0402L13.7128 34.775C13.6602 34.6134 13.6772 34.5875 13.8331 34.5464C13.8463 34.5392 13.861 34.5354 13.876 34.5353C13.891 34.5353 13.9057 34.5391 13.9189 34.5463C13.932 34.5535 13.9432 34.5639 13.9512 34.5766C13.9593 34.5892 13.964 34.6037 13.965 34.6187C14.1575 35.2051 14.3509 35.7914 14.5452 36.3778C14.5604 36.4251 14.5791 36.4813 14.5167 36.5063C14.4276 36.5429 14.334 36.6063 14.2288 36.5197C13.9775 36.3117 13.7217 36.1108 13.4677 35.9072L12.9125 35.4607C12.8661 35.5224 12.9071 35.5661 12.9205 35.6072C13.0426 35.9885 13.1638 36.3697 13.2939 36.7474C13.334 36.8653 13.3028 36.9153 13.1887 36.9528C13.0747 36.9903 13.0426 36.9385 13.0105 36.8447C12.8322 36.2947 12.654 35.7465 12.4758 35.1964C12.4553 35.133 12.3866 35.0518 12.4829 35.0009C12.5791 34.95 12.6718 34.9045 12.7823 34.9955C13.1825 35.3241 13.5889 35.6465 13.9926 35.9697C14.0301 36.0001 14.0702 36.0277 14.1094 36.059L14.1299 36.0402Z" fill="#49C4A2"/>
<path id="Vector_11" d="M20.8033 34.4544C20.789 34.7508 20.6803 34.9642 20.4102 35.0642C20.3211 35.0955 20.3086 35.1375 20.3371 35.2205C20.4111 35.4357 20.4815 35.6518 20.5448 35.8696C20.5617 35.9268 20.6339 35.9973 20.551 36.0482C20.4896 36.0884 20.3015 36.0054 20.2757 35.9322C20.2347 35.8161 20.199 35.6973 20.1625 35.575C20.1407 35.5198 20.124 35.4627 20.1126 35.4044C20.084 35.1366 19.9156 35.0473 19.6714 35.033C19.5912 35.0285 19.552 35.0428 19.5377 35.1223C19.5038 35.3116 19.4602 35.5 19.4299 35.6902C19.412 35.7982 19.3648 35.8304 19.2578 35.8071C19.1509 35.7839 19.1144 35.7536 19.1375 35.6384C19.2543 35.0473 19.3648 34.4553 19.4753 33.8624C19.4922 33.7731 19.5288 33.7338 19.6259 33.7552C19.8434 33.8026 20.0635 33.8329 20.2792 33.8865C20.6099 33.9794 20.8033 34.1981 20.8033 34.4544ZM20.0582 34.8696C20.3256 34.8696 20.4584 34.7616 20.4976 34.549C20.5077 34.5053 20.5091 34.4601 20.5016 34.4159C20.4942 34.3716 20.4781 34.3293 20.4542 34.2914C20.4303 34.2534 20.3992 34.2206 20.3626 34.1948C20.326 34.169 20.2846 34.1507 20.2409 34.141C20.1152 34.1017 19.9824 34.082 19.8523 34.0517C19.838 34.0472 19.8228 34.046 19.8079 34.0483C19.7931 34.0506 19.7789 34.0562 19.7666 34.0649C19.7543 34.0735 19.7441 34.0848 19.7369 34.098C19.7296 34.1112 19.7255 34.1259 19.7249 34.141C19.691 34.3196 19.6598 34.4981 19.6224 34.6767C19.609 34.7446 19.6313 34.783 19.6963 34.7955L20.0582 34.8696Z" fill="#49C4A2"/>
<path id="Vector_12" d="M16.4 36.0393C16.0435 36.0393 15.8109 35.9205 15.6638 35.6821C15.5467 35.505 15.4672 35.3056 15.4304 35.0964C15.3936 34.8871 15.4002 34.6725 15.4499 34.466C15.5337 34.1267 15.7966 33.9758 16.1219 33.9231C16.4312 33.8731 16.6888 33.9597 16.8608 34.2365C16.8929 34.2892 16.9659 34.349 16.892 34.4151C16.8514 34.4446 16.8011 34.4575 16.7514 34.451C16.7016 34.4445 16.6563 34.4192 16.6246 34.3802C16.4963 34.1508 16.2948 34.1249 16.0604 34.1811C15.826 34.2374 15.7039 34.4186 15.7039 34.6838C15.697 34.9568 15.7564 35.2274 15.8768 35.4723C15.9183 35.553 15.9774 35.6233 16.0497 35.6779C16.122 35.7326 16.2058 35.7701 16.2946 35.7878C16.3835 35.8055 16.4752 35.8028 16.5629 35.7801C16.6506 35.7573 16.732 35.7149 16.8011 35.6562C16.8271 35.6373 16.8475 35.6118 16.8602 35.5822C16.8729 35.5527 16.8774 35.5202 16.8733 35.4883C16.8733 35.4642 16.867 35.4392 16.8626 35.4151C16.8073 35.1124 16.8073 35.1124 16.5061 35.1749C16.4267 35.191 16.3376 35.2339 16.3091 35.1017C16.2913 35.0214 16.3029 34.9696 16.3982 34.9517C16.5765 34.9187 16.7449 34.8785 16.9187 34.841C17.0016 34.8222 17.0479 34.841 17.0631 34.9365C17.0858 35.093 17.1186 35.2477 17.1611 35.3999C17.2164 35.5785 17.1469 35.6973 17.0194 35.8C16.8453 35.9466 16.6273 36.0308 16.4 36.0393Z" fill="#49C4A2"/>
<path id="Vector_13" d="M18.3551 35.5213C18.4932 35.5213 18.6314 35.5213 18.7695 35.5213C18.8587 35.5213 18.8907 35.566 18.8925 35.649C18.8943 35.7321 18.8497 35.7687 18.7597 35.766C18.4086 35.7571 18.0565 35.7794 17.7054 35.799C17.5993 35.8044 17.5592 35.7624 17.5574 35.6597C17.5494 35.2544 17.5227 34.849 17.5236 34.4427C17.5236 34.2588 17.5102 34.0757 17.4995 33.8918C17.4933 33.7704 17.5254 33.7132 17.6546 33.7132C17.9692 33.7132 18.2847 33.6927 18.5993 33.6882C18.6884 33.6882 18.8132 33.6382 18.8114 33.8079C18.8096 33.9775 18.6822 33.9248 18.5957 33.9302C18.3792 33.9445 18.1626 33.9516 17.946 33.9552C17.8498 33.9552 17.7972 33.9891 17.8034 34.0945C17.8114 34.2275 17.8141 34.3624 17.8213 34.4936C17.8213 34.5722 17.8622 34.5981 17.9469 34.5927C18.159 34.5802 18.3711 34.5829 18.5824 34.5767C18.6635 34.5767 18.7152 34.5963 18.7178 34.6901C18.7205 34.7838 18.6751 34.8204 18.5833 34.8231C18.3818 34.8285 18.1804 34.8418 17.9781 34.8454C17.8721 34.8454 17.8257 34.8856 17.8319 34.9954C17.84 35.1383 17.8319 35.282 17.8435 35.4249C17.8435 35.5142 17.8836 35.5535 17.9861 35.5419C18.109 35.5343 18.2322 35.5343 18.3551 35.5419V35.5213Z" fill="#49C4A2"/>
<path id="Vector_14" d="M23.0938 36.3787C23.0938 36.543 23.0938 36.6617 23.0938 36.7796C23.0938 36.8349 23.1322 36.935 23.0297 36.9278C22.9272 36.9207 22.822 36.9108 22.8202 36.7689C22.8202 36.651 22.814 36.5323 22.8202 36.4117C22.826 36.3726 22.8164 36.3328 22.7934 36.3007C22.7705 36.2686 22.736 36.2466 22.6972 36.2394C22.5056 36.176 22.3158 36.1063 22.1277 36.0331C22.0947 36.016 22.0565 36.0121 22.0207 36.0222C21.985 36.0323 21.9544 36.0557 21.9352 36.0876C21.8728 36.1697 21.806 36.2492 21.74 36.3287C21.7218 36.3516 21.699 36.3705 21.6733 36.3844C21.6475 36.3983 21.6191 36.4067 21.59 36.4093C21.5608 36.4119 21.5314 36.4086 21.5036 36.3994C21.4758 36.3903 21.4501 36.3757 21.4281 36.3564C21.3666 36.3019 21.4281 36.2671 21.4531 36.2349C21.699 35.9456 21.9462 35.6569 22.1946 35.3688C22.3675 35.167 22.543 34.9661 22.7142 34.7616C22.737 34.7254 22.7714 34.698 22.8117 34.6838C22.8521 34.6696 22.896 34.6695 22.9365 34.6834C22.9769 34.6973 23.0114 34.7246 23.0345 34.7606C23.0576 34.7967 23.0678 34.8395 23.0635 34.8822C23.06 35.3983 23.0671 35.9117 23.0938 36.3787ZM22.7953 35.1286L22.7525 35.1143C22.6438 35.2438 22.5368 35.3742 22.4272 35.5027C22.1696 35.8054 22.1687 35.8072 22.543 35.9349C22.8149 36.0242 22.7944 36.0653 22.7953 35.7563C22.7962 35.5376 22.7953 35.3322 22.7953 35.1241V35.1286Z" fill="#49C4A2"/>
<path id="Vector_15" d="M21.6936 34.3294C21.6873 34.3544 21.6811 34.3785 21.674 34.4017C21.4957 34.9723 21.3175 35.542 21.1481 36.1143C21.1107 36.2366 21.051 36.25 20.9405 36.2143C20.83 36.1786 20.8389 36.1143 20.8656 36.0304C21.0034 35.5833 21.1413 35.1369 21.2791 34.691C21.321 34.5544 21.3683 34.4178 21.4066 34.2812C21.4088 34.2662 21.4148 34.2521 21.4239 34.2401C21.4331 34.2281 21.4451 34.2187 21.4589 34.2126C21.4727 34.2065 21.4878 34.2041 21.5028 34.2054C21.5178 34.2068 21.5323 34.212 21.5447 34.2205C21.6036 34.2401 21.6891 34.2329 21.6936 34.3294Z" fill="#49C4A2"/>
<path id="Vector_16" d="M15.2928 36.2268C15.2928 36.3268 15.2037 36.3116 15.1378 36.3348C15.0602 36.3643 15.021 36.3348 14.9996 36.2527C14.8936 35.8732 14.7848 35.4937 14.6779 35.1142C14.6173 34.9008 14.5585 34.6865 14.4952 34.474C14.464 34.3686 14.5273 34.3481 14.6057 34.3258C14.6841 34.3034 14.7465 34.2865 14.7768 34.3927C14.9426 34.9865 15.1128 35.5794 15.2813 36.1723C15.2848 36.1866 15.2875 36.2009 15.2928 36.2268Z" fill="#49C4A2"/>
<path id="Vector_17" d="M18.8255 14.1372C19.5885 14.1127 20.3479 14.2509 21.0536 14.5426C21.805 14.8626 22.4701 15.3561 22.9947 15.9829C23.6568 16.752 24.1751 17.6343 24.525 18.5875C24.7843 19.2938 24.8815 20.0331 24.9038 20.7831C24.9492 22.0796 24.705 23.3172 24.0803 24.4539C23.1141 26.2129 21.6962 27.4228 19.6837 27.7898C17.9396 28.1085 16.3549 27.6782 14.9985 26.5397C13.5858 25.3503 12.798 23.794 12.5475 21.9725C12.2623 19.8929 12.7953 18.0232 14.0849 16.3757C15.1063 15.0694 16.4485 14.3265 18.1036 14.1658C18.2266 14.1542 18.3496 14.1444 18.4725 14.139C18.5955 14.1337 18.7069 14.1372 18.8255 14.1372ZM22.3067 19.392C22.2766 19.3608 22.2358 19.3423 22.1926 19.3402C21.8468 19.2592 21.501 19.1792 21.1552 19.1C20.5688 18.9661 19.9787 18.8446 19.3959 18.6964C19.0269 18.6071 18.9378 18.4419 18.9877 18.0633C19.0929 17.2597 19.1659 16.4445 19.2319 15.6328C19.2372 15.5695 19.2675 15.4891 19.1748 15.4543C19.0822 15.4194 19.0554 15.4971 19.0162 15.5507C18.559 16.182 18.0955 16.8088 17.6793 17.4696C17.3647 17.9669 16.9548 18.1205 16.3817 17.9857C16.1803 17.9383 15.9833 17.8723 15.7854 17.8071C15.2953 17.6544 14.8051 17.5044 14.289 17.4669C14.101 17.4526 14.0983 17.4615 14.1705 17.6374C14.401 18.2261 14.6622 18.8022 14.953 19.3634C15.1536 19.7085 15.2384 20.1089 15.1951 20.5058C15.1518 20.9028 14.9826 21.2754 14.7124 21.5689C14.3238 22.0305 13.9406 22.493 13.6491 23.0252C13.6224 23.0752 13.5752 23.119 13.5867 23.1922C13.6059 23.1924 13.625 23.1906 13.6438 23.1868C14.1429 23.0154 14.65 22.8672 15.1357 22.66C15.312 22.5709 15.4981 22.5026 15.6901 22.4564C15.7799 22.437 15.8733 22.4434 15.9596 22.475C16.0459 22.5066 16.1215 22.5621 16.1776 22.635C16.2504 22.7225 16.3076 22.8219 16.3469 22.9288C16.7391 23.9592 17.2284 24.9468 17.6838 25.9495C17.6963 25.9772 17.6972 26.02 17.7587 26.0174C17.8145 25.8877 17.8595 25.7536 17.8932 25.6164C18.0831 24.4717 18.3041 23.3315 18.4378 22.1787C18.5135 21.5269 18.7943 21.0376 19.4182 20.7796C19.9886 20.5456 20.553 20.2962 21.1115 20.0313C21.5161 19.8384 21.9136 19.6241 22.3067 19.392ZM22.5152 17.1597C22.5049 17.3612 22.5073 17.5631 22.5224 17.7642C22.5224 18.7071 22.5491 19.6509 22.4716 20.5929C22.4053 21.4931 22.1631 22.3714 21.7586 23.1779C21.2167 24.2494 20.4048 25.0628 19.3977 25.6959C18.7934 26.0754 18.1365 26.3486 17.4931 26.6477C17.4298 26.6772 17.3148 26.6781 17.3211 26.7594C17.3273 26.8406 17.4289 26.8486 17.4993 26.8799C18.0153 27.1192 18.5528 27.1156 19.092 26.9924C20.182 26.7433 21.0866 26.1584 21.8949 25.4102C22.6142 24.7441 23.1988 23.9815 23.5437 23.052C24.0606 21.6986 24.0606 20.2016 23.5437 18.8482C23.3157 18.2214 22.9662 17.6461 22.5152 17.1553V17.1597Z" fill="#49C4A2"/>
<path id="Vector_18" d="M18.7011 28.5505C18.9014 28.5498 19.0998 28.5889 19.2849 28.6654C19.4699 28.742 19.638 28.8546 19.7794 28.9967C19.9208 29.1387 20.0327 29.3075 20.1086 29.4931C20.1845 29.6788 20.2229 29.8776 20.2216 30.0783C20.2225 30.3819 20.1333 30.6789 19.9654 30.9317C19.7975 31.1844 19.5584 31.3815 19.2785 31.4979C18.9986 31.6143 18.6905 31.6447 18.3933 31.5854C18.0961 31.526 17.8232 31.3796 17.6092 31.1646C17.3952 30.9496 17.2498 30.6757 17.1915 30.3778C17.1331 30.0799 17.1644 29.7713 17.2814 29.4912C17.3984 29.2111 17.5958 28.9722 17.8486 28.8047C18.1013 28.6372 18.3981 28.5487 18.7011 28.5505Z" fill="#49C4A2"/>
<path id="Vector_19" d="M11.6117 19.0231L10.8871 18.5151C10.6411 18.3427 10.3933 18.1713 10.1465 17.999C10.0359 17.9222 10.019 17.632 10.1188 17.5445C10.1545 17.5132 10.1928 17.5266 10.2311 17.5356C10.8933 17.6882 11.5564 17.8436 12.2204 17.9936C12.3416 18.0204 12.3318 18.0927 12.3095 18.1811C12.2872 18.2695 12.2614 18.3454 12.1313 18.3151C11.6937 18.2133 11.2569 18.1133 10.8238 17.9945C10.7604 17.9737 10.6932 17.9667 10.6268 17.974L11.2819 18.4356C11.5199 18.6035 11.7578 18.7722 11.9949 18.9383C12.0635 18.9865 12.1108 19.0276 12.084 19.1321C12.0788 19.172 12.0603 19.2089 12.0315 19.2369C12.0027 19.265 11.9653 19.2825 11.9254 19.2865C11.3951 19.3687 10.8648 19.4562 10.3345 19.541C10.3087 19.5433 10.2848 19.5554 10.2677 19.5749C10.5841 19.641 10.9013 19.7062 11.2177 19.7741C11.4049 19.8151 11.5912 19.8634 11.7801 19.9018C11.9289 19.9312 11.8799 20.0285 11.8692 20.1178C11.8585 20.2071 11.8104 20.2509 11.707 20.2268C11.0534 20.072 10.3999 19.9205 9.74629 19.7723C9.6331 19.7464 9.60814 19.6955 9.6331 19.5839C9.69014 19.3339 9.68568 19.3356 9.94504 19.2964C10.4611 19.2187 10.9771 19.1365 11.4931 19.0562C11.5208 19.0499 11.5484 19.0392 11.6117 19.0231Z" fill="#49C4A2"/>
<path id="Vector_20" d="M12.889 27.8201L13.7802 27.3567C13.9852 27.2486 14.192 27.1442 14.3952 27.0316C14.4261 27.0075 14.4646 26.9953 14.5037 26.9973C14.5428 26.9993 14.5799 27.0153 14.6082 27.0424C14.6401 27.0652 14.6631 27.0985 14.673 27.1365C14.6829 27.1745 14.6792 27.2148 14.6626 27.2504C14.4995 27.7433 14.3399 28.2326 14.1795 28.7291C14.161 28.7768 14.154 28.8281 14.159 28.8791C14.2437 28.7737 14.3284 28.6683 14.4148 28.5639C14.659 28.2665 14.9086 27.9728 15.1465 27.671C15.2285 27.5665 15.2802 27.6156 15.3497 27.671C15.4192 27.7263 15.4807 27.7719 15.3952 27.871C15.0262 28.3023 14.6626 28.738 14.2972 29.1719C14.2205 29.2612 14.1421 29.3505 14.0681 29.4398C14.0244 29.4934 13.9834 29.4996 13.9317 29.4523C13.8958 29.4197 13.8573 29.3898 13.8168 29.363C13.717 29.2978 13.7089 29.2202 13.7464 29.1094C13.9175 28.6094 14.0788 28.1058 14.2437 27.604C14.2606 27.5531 14.2758 27.5013 14.2963 27.4352C14.2105 27.441 14.1283 27.472 14.0601 27.5245C13.6198 27.7567 13.1813 27.9924 12.741 28.2255C12.6637 28.2593 12.5765 28.2628 12.4967 28.2351C12.417 28.2075 12.3505 28.1508 12.3106 28.0763C12.2812 28.0156 12.3302 27.9871 12.3605 27.9504C12.7918 27.4361 13.2268 26.9245 13.6546 26.4084C13.733 26.3137 13.7874 26.3423 13.8605 26.4084C13.9335 26.4745 13.9861 26.5218 13.897 26.6218C13.5949 26.9611 13.3007 27.3067 13.0057 27.6504C12.9516 27.6948 12.9111 27.7536 12.889 27.8201Z" fill="#49C4A2"/>
<path id="Vector_21" d="M21.4432 12.1978L20.8683 13.5452C20.7953 13.7157 20.7899 13.7121 20.6179 13.6443C20.502 13.5987 20.5216 13.5362 20.5591 13.4478C20.8158 12.854 21.0671 12.2576 21.3247 11.662C21.3505 11.6022 21.3532 11.4906 21.4592 11.5218C21.5653 11.5531 21.6838 11.5647 21.707 11.7156C21.7596 12.0478 21.8229 12.3772 21.8852 12.7085C21.9369 13.0023 21.9886 13.296 22.0688 13.5934C22.2204 13.2416 22.3716 12.8895 22.5225 12.5371C22.5706 12.4237 22.6259 12.3121 22.666 12.196C22.7061 12.0799 22.7551 12.0611 22.8656 12.1067C22.9761 12.1522 23.0171 12.1906 22.9619 12.3147C22.7613 12.7665 22.5724 13.2228 22.3781 13.6764C22.3166 13.822 22.2569 13.9684 22.1892 14.1113C22.1633 14.1684 22.1589 14.2738 22.0644 14.2461C21.9699 14.2184 21.8362 14.205 21.8113 14.0568C21.7364 13.6103 21.6571 13.171 21.5787 12.729C21.5475 12.5505 21.5145 12.3719 21.4824 12.1933L21.4432 12.1978Z" fill="#49C4A2"/>
<path id="Vector_22" d="M18.4149 12.5255C18.4149 13.105 18.086 13.4898 17.5451 13.5791C17.3944 13.6041 17.2403 13.6122 17.0932 13.6497C16.9461 13.6872 16.8953 13.6264 16.8766 13.4863C16.8089 12.9934 16.7322 12.5041 16.6601 12.0085C16.6369 11.8522 16.6191 11.696 16.5896 11.5406C16.5727 11.4513 16.5977 11.3986 16.6913 11.3853C16.9016 11.3558 17.1092 11.3147 17.3205 11.296C17.526 11.2764 17.7322 11.3254 17.9071 11.4353C18.082 11.5453 18.2157 11.7101 18.2875 11.904C18.3611 12.1035 18.4041 12.3131 18.4149 12.5255ZM18.0843 12.5469C18.0782 12.3627 18.0451 12.1804 17.9862 12.0058C17.9452 11.8778 17.8641 11.7665 17.7549 11.6883C17.6458 11.6101 17.5144 11.5693 17.3802 11.5719C17.2679 11.5719 17.1565 11.6031 17.0433 11.6165C16.9604 11.6263 16.9426 11.6665 16.9542 11.7478C17.0302 12.2407 17.1033 12.7338 17.1734 13.2273C17.1832 13.2961 17.21 13.3318 17.2848 13.3354C17.7616 13.3586 18.0869 13.0559 18.0843 12.5469Z" fill="#49C4A2"/>
<path id="Vector_23" d="M26.7185 19.3554C26.9717 19.3323 27.2247 19.4011 27.4315 19.5491C27.5516 19.6371 27.6474 19.7541 27.71 19.8893C27.7726 20.0245 27.7999 20.1734 27.7894 20.3221C27.7789 20.4707 27.7309 20.6143 27.6499 20.7392C27.5689 20.8642 27.4576 20.9666 27.3263 21.0367C27.1208 21.1464 26.8944 21.211 26.6621 21.2264C26.4298 21.2418 26.1969 21.2076 25.9788 21.126C25.6223 20.9974 25.4565 20.7135 25.4342 20.3492C25.4194 20.1952 25.4481 20.0402 25.517 19.9017C25.5858 19.7633 25.6921 19.647 25.8237 19.5661C26.0893 19.3947 26.3816 19.3545 26.7185 19.3554ZM26.7042 19.6875C26.4369 19.6875 26.1811 19.7072 25.952 19.8581C25.7488 19.992 25.7007 20.1867 25.7265 20.4144C25.7328 20.5068 25.767 20.5951 25.8246 20.6675C25.8823 20.74 25.9606 20.7931 26.0492 20.8197C26.246 20.8857 26.454 20.9113 26.6609 20.8949C26.8678 20.8784 27.0693 20.8204 27.2532 20.7242C27.4538 20.6224 27.5206 20.4331 27.5028 20.2108C27.5007 20.1163 27.472 20.0243 27.4202 19.9454C27.3683 19.8664 27.2953 19.8037 27.2096 19.7643C27.0503 19.6964 26.8764 19.67 26.7042 19.6875Z" fill="#49C4A2"/>
<path id="Vector_24" d="M11.3996 24.0189C11.4111 24.1905 11.3997 24.3629 11.3657 24.5315C11.2392 24.9958 10.7418 25.1395 10.3853 24.8127C10.1037 24.552 9.99944 24.0832 10.1527 23.7654C10.193 23.6749 10.2541 23.5954 10.331 23.5332C10.5092 23.3948 10.5591 23.4109 10.6171 23.6225C10.6279 23.6494 10.6281 23.6793 10.6176 23.7064C10.6072 23.7334 10.5869 23.7554 10.5609 23.768C10.2748 23.9654 10.3034 24.4413 10.6073 24.6163C10.6462 24.6405 10.6902 24.6554 10.7358 24.66C10.7813 24.6646 10.8274 24.6587 10.8703 24.6427C10.9133 24.6268 10.9521 24.6013 10.9837 24.5681C11.0154 24.5349 11.039 24.4949 11.0529 24.4511C11.0863 24.3218 11.0981 24.1878 11.0876 24.0547C11.0876 23.8538 11.0645 23.6502 11.1322 23.4528C11.1607 23.3604 11.2116 23.2765 11.2803 23.2085C11.349 23.1405 11.4333 23.0905 11.5259 23.0631C11.6185 23.0356 11.7164 23.0315 11.811 23.051C11.9056 23.0706 11.9939 23.1132 12.068 23.1751C12.3693 23.4189 12.5092 23.9716 12.3568 24.327C12.3088 24.4533 12.2179 24.5586 12.1001 24.6243C12.0511 24.6493 11.9825 24.7029 11.9522 24.6172C11.9219 24.5315 11.8211 24.4449 11.9272 24.3493C11.9923 24.2953 12.045 24.2278 12.0818 24.1516C12.1185 24.0753 12.1385 23.992 12.1404 23.9073C12.1423 23.8227 12.1259 23.7386 12.0925 23.6608C12.0591 23.583 12.0094 23.5133 11.9468 23.4564C11.9078 23.4165 11.859 23.3877 11.8053 23.3729C11.7515 23.3581 11.6949 23.3578 11.641 23.372C11.5871 23.3863 11.538 23.4145 11.4985 23.454C11.4591 23.4934 11.4308 23.5426 11.4165 23.5966C11.3782 23.7511 11.4085 23.8993 11.3996 24.0189Z" fill="#49C4A2"/>
<path id="Vector_25" d="M26.0787 18.1794C26.0658 18.0065 26.0818 17.8327 26.126 17.6651C26.257 17.2061 26.7641 17.0713 27.1063 17.4034C27.4486 17.7356 27.4878 18.3472 27.1723 18.6446C27.153 18.667 27.1301 18.686 27.1045 18.7008C27.0404 18.7294 26.9807 18.8312 26.9022 18.7374C26.8809 18.7167 26.8646 18.6914 26.8543 18.6634C26.8441 18.6355 26.8403 18.6056 26.8431 18.5759C26.8459 18.5463 26.8553 18.5176 26.8706 18.4921C26.886 18.4666 26.9068 18.4449 26.9316 18.4285C27.1099 18.3169 27.158 18.1419 27.0849 17.8928C27.0199 17.6677 26.8915 17.5517 26.7115 17.5543C26.5315 17.557 26.4441 17.6436 26.4094 17.8222C26.3809 18.0113 26.3717 18.2027 26.3817 18.3937C26.385 18.5277 26.3601 18.661 26.3087 18.7848C26.2712 18.8754 26.2115 18.9551 26.1351 19.0164C26.0586 19.0778 25.968 19.1188 25.8715 19.1356C25.775 19.1524 25.6759 19.1446 25.5832 19.1127C25.4906 19.0809 25.4075 19.0261 25.3417 18.9535C25.2161 18.8225 25.1263 18.6611 25.0812 18.4852C25.0361 18.3092 25.0371 18.1245 25.0841 17.949C25.1028 17.8667 25.1382 17.7892 25.1882 17.7213C25.2382 17.6534 25.3017 17.5965 25.3746 17.5543C25.4272 17.5231 25.5012 17.4651 25.5333 17.5624C25.5654 17.6597 25.6598 17.7356 25.552 17.8303C25.4875 17.8808 25.4343 17.9443 25.3959 18.0168C25.3575 18.0893 25.3347 18.169 25.3291 18.2509C25.3234 18.3327 25.335 18.4149 25.3632 18.4919C25.3913 18.569 25.4353 18.6392 25.4923 18.6982C25.5303 18.7454 25.581 18.7809 25.6383 18.8005C25.6957 18.8201 25.7574 18.8229 25.8164 18.8087C25.8753 18.7945 25.929 18.7638 25.9711 18.7202C26.0133 18.6766 26.0423 18.6219 26.0547 18.5624C26.0755 18.4359 26.0835 18.3076 26.0787 18.1794Z" fill="#49C4A2"/>
<path id="Vector_26" d="M20.1026 13.5551C19.7292 13.5238 19.3566 13.4908 18.9832 13.4658C18.8789 13.4577 18.8513 13.405 18.8602 13.3077C18.9196 12.6446 18.9755 11.9809 19.0278 11.3165C19.0367 11.2094 19.0777 11.1665 19.1846 11.1764C19.5726 11.2109 19.9588 11.2433 20.3432 11.2737C20.4609 11.2835 20.4912 11.346 20.4769 11.4523C20.4627 11.5585 20.3878 11.5594 20.304 11.5505C20.0367 11.5246 19.7693 11.5058 19.509 11.4799C19.386 11.4674 19.3263 11.5058 19.3308 11.6398C19.3352 11.7737 19.3139 11.896 19.3023 12.0237C19.2925 12.1309 19.3424 12.1737 19.4466 12.1809C19.673 12.196 19.8985 12.2219 20.1249 12.2362C20.2292 12.2434 20.2559 12.2934 20.2523 12.3898C20.2523 12.4996 20.1882 12.522 20.0955 12.513C19.8753 12.4934 19.6498 12.4782 19.4333 12.455C19.3156 12.4434 19.255 12.4889 19.2497 12.6068C19.2399 12.7595 19.2265 12.9122 19.214 13.0648C19.209 13.0841 19.2087 13.1043 19.2132 13.1236C19.2177 13.143 19.2268 13.161 19.2398 13.176C19.2528 13.1911 19.2692 13.2027 19.2877 13.21C19.3062 13.2172 19.3262 13.2198 19.3459 13.2175C19.6017 13.2354 19.8575 13.2559 20.1124 13.2809C20.2015 13.2899 20.3343 13.2434 20.3299 13.4211C20.3254 13.5988 20.2078 13.5595 20.1026 13.5551Z" fill="#49C4A2"/>
<path id="Vector_27" d="M23.7969 15.8114C23.7969 15.5765 23.8405 15.423 23.9591 15.2988C23.9983 15.2578 24.0482 15.172 24.1115 15.2542C24.1748 15.3363 24.2817 15.3846 24.2006 15.5042C24.1531 15.5712 24.1202 15.6475 24.1039 15.728C24.0876 15.8086 24.0883 15.8917 24.1061 15.9719C24.1238 16.0522 24.1581 16.1278 24.2067 16.194C24.2554 16.2601 24.3174 16.3153 24.3887 16.356C24.4383 16.3908 24.4967 16.4109 24.5572 16.414C24.6176 16.4171 24.6778 16.4031 24.7307 16.3736C24.7836 16.3441 24.8271 16.3002 24.8563 16.2471C24.8855 16.1939 24.8992 16.1336 24.8958 16.073C24.882 15.9155 24.8473 15.7605 24.7924 15.6123C24.7397 15.4576 24.7132 15.2953 24.714 15.1319C24.7149 15.0534 24.7323 14.9761 24.7651 14.9048C24.7978 14.8335 24.8451 14.77 24.9039 14.7182C24.9627 14.6664 25.0318 14.6276 25.1065 14.6043C25.1813 14.5809 25.2601 14.5736 25.3378 14.5827C25.8066 14.622 26.2906 15.3346 25.9929 15.8158C25.9751 15.8512 25.953 15.8842 25.927 15.9141C25.8779 15.9587 25.8378 16.0525 25.7487 15.9766C25.6435 15.8873 25.6213 15.7846 25.689 15.7087C25.9073 15.4506 25.7478 14.9729 25.4216 14.897C25.374 14.8832 25.3237 14.881 25.275 14.8907C25.2264 14.9004 25.1808 14.9217 25.1421 14.9528C25.1033 14.9839 25.0727 15.0239 25.0526 15.0693C25.0325 15.1148 25.0237 15.1644 25.0268 15.214C25.0392 15.3669 25.0734 15.5173 25.1284 15.6605C25.193 15.8313 25.22 16.014 25.2077 16.1962C25.2001 16.2945 25.1674 16.3892 25.1128 16.4712C25.0582 16.5532 24.9835 16.6198 24.8958 16.6646C24.8082 16.7094 24.7105 16.7309 24.6122 16.7271C24.5139 16.7232 24.4182 16.6942 24.3343 16.6427C24.1841 16.5582 24.0567 16.4384 23.9631 16.2935C23.8695 16.1487 23.8124 15.9832 23.7969 15.8114Z" fill="#49C4A2"/>
<path id="Vector_28" d="M11.4531 15.6159C11.4487 15.6693 11.4584 15.7229 11.4812 15.7714C11.5041 15.8198 11.5394 15.8614 11.5834 15.8918C11.6274 15.9223 11.6787 15.9405 11.7321 15.9448C11.7854 15.949 11.8389 15.939 11.8872 15.9159C12.0185 15.8563 12.139 15.7751 12.2437 15.6757C12.3719 15.5594 12.519 15.4658 12.6786 15.3989C12.774 15.3584 12.8784 15.3442 12.981 15.3577C13.0837 15.3712 13.181 15.4119 13.2627 15.4756C13.3444 15.5393 13.4077 15.6237 13.4461 15.7201C13.4844 15.8165 13.4963 15.9214 13.4807 16.0239C13.4335 16.4168 13.0912 16.8115 12.7285 16.8918C12.6129 16.9212 12.491 16.9134 12.38 16.8695C12.3257 16.8472 12.233 16.8302 12.2829 16.7418C12.3248 16.6686 12.3408 16.5463 12.4691 16.5632C12.8363 16.6195 13.0618 16.4882 13.1821 16.1373C13.2106 16.0722 13.2175 15.9997 13.2017 15.9304C13.186 15.8611 13.1485 15.7987 13.0947 15.7523C13.041 15.706 12.9738 15.6781 12.9031 15.6728C12.8323 15.6676 12.7618 15.6851 12.7018 15.723C12.5622 15.8072 12.4309 15.9043 12.3096 16.0132C12.1989 16.1045 12.0735 16.1764 11.9389 16.2257C11.8505 16.2581 11.7555 16.268 11.6623 16.2547C11.5692 16.2414 11.4808 16.2052 11.405 16.1493C11.3292 16.0934 11.2684 16.0196 11.2279 15.9345C11.1875 15.8494 11.1687 15.7556 11.1733 15.6614C11.1883 15.4711 11.2574 15.2891 11.3724 15.1369C11.4874 14.9847 11.6434 14.8686 11.8221 14.8024C11.9597 14.7581 12.1085 14.7645 12.2419 14.8203C12.2927 14.8417 12.3961 14.8533 12.3363 14.9435C12.2873 15.0176 12.2793 15.1614 12.1233 15.1149C12.0454 15.0899 11.9627 15.0838 11.882 15.0973C11.8013 15.1108 11.725 15.1434 11.6594 15.1924C11.5938 15.2414 11.5409 15.3054 11.505 15.3791C11.4691 15.4527 11.4513 15.5339 11.4531 15.6159Z" fill="#49C4A2"/>
<path id="Vector_29" d="M15.4828 14.239C15.3512 14.2443 15.221 14.2109 15.1081 14.143C14.9952 14.0751 14.9046 13.9757 14.8473 13.8569C14.6236 13.4104 14.4124 12.9586 14.1905 12.5112C14.1299 12.388 14.2208 12.3702 14.293 12.3327C14.3652 12.2952 14.4311 12.2666 14.4819 12.3746C14.6804 12.8002 14.8827 13.2238 15.0889 13.6452C15.2431 13.9622 15.4882 14.0399 15.8019 13.8792C16.0692 13.7372 16.153 13.4988 16.0131 13.2024C15.8224 12.7961 15.6236 12.3925 15.4275 11.988C15.3482 11.8237 15.3616 11.7987 15.5363 11.7335C15.5499 11.7252 15.5652 11.7201 15.5811 11.7186C15.5969 11.7172 15.6129 11.7194 15.6278 11.7251C15.6427 11.7308 15.6561 11.7398 15.667 11.7515C15.6778 11.7632 15.6859 11.7772 15.6905 11.7925C15.9044 12.2434 16.129 12.6854 16.3313 13.1452C16.4756 13.4711 16.3732 13.7952 16.0871 14.0131C15.9148 14.151 15.7031 14.2302 15.4828 14.239Z" fill="#49C4A2"/>
<path id="Vector_30" d="M12.496 24.9048C12.8471 24.9048 13.1724 25.1789 13.2981 25.5843C13.4024 25.9245 13.2936 26.2218 12.9772 26.4263C12.5806 26.6844 12.1751 26.9308 11.7812 27.1897C11.6698 27.263 11.6288 27.2085 11.5726 27.1263C11.5165 27.0442 11.5165 26.9763 11.6181 26.9138C12.0004 26.679 12.3774 26.4352 12.7571 26.1995C13.1136 25.9754 13.1475 25.6271 12.8462 25.3396C12.6814 25.1834 12.4897 25.1611 12.2776 25.2986C11.8792 25.545 11.4826 25.7941 11.0905 26.0504C10.98 26.1227 10.9238 26.104 10.8588 25.9941C10.7937 25.8843 10.808 25.8414 10.9069 25.7807C11.3097 25.5325 11.709 25.2771 12.1092 25.0253C12.224 24.9491 12.3582 24.9073 12.496 24.9048Z" fill="#49C4A2"/>
<path id="Vector_31" d="M24.403 25.645C24.2693 25.645 24.1909 25.5378 24.2426 25.4423C24.4333 25.0851 24.6285 24.728 24.8184 24.3708C24.8611 24.2905 24.9075 24.2815 24.9841 24.3235C25.5866 24.6521 26.1897 24.9795 26.7934 25.3057C26.8073 25.3101 26.82 25.318 26.8303 25.3285C26.8405 25.3391 26.848 25.352 26.852 25.3661C26.8561 25.3803 26.8566 25.3952 26.8535 25.4096C26.8504 25.4239 26.8438 25.4373 26.8344 25.4486C26.6365 25.8129 26.4395 26.1781 26.2435 26.5442C26.1962 26.6334 26.1436 26.5933 26.0857 26.5629C26.0278 26.5325 25.9698 26.4906 26.0189 26.4022C26.1552 26.1566 26.2862 25.9057 26.4235 25.662C26.4859 25.5539 26.4885 25.4887 26.362 25.4334C26.2321 25.3728 26.1059 25.3046 25.9841 25.2289C25.9075 25.1825 25.8629 25.1932 25.821 25.2744C25.7114 25.4843 25.5928 25.6896 25.4841 25.8995C25.4369 25.9888 25.3879 26.0218 25.2871 25.9691C25.1864 25.9164 25.198 25.8602 25.2426 25.7789C25.3558 25.5762 25.4609 25.3691 25.5777 25.1682C25.6347 25.0709 25.6107 25.0191 25.5162 24.9717C25.3665 24.8958 25.2185 24.8173 25.0706 24.7316C24.9814 24.6771 24.9342 24.703 24.8923 24.7932C24.7631 25.0432 24.625 25.2896 24.4922 25.537C24.4663 25.5852 24.4449 25.6379 24.403 25.645Z" fill="#49C4A2"/>
<path id="Vector_32" d="M27.6845 22.6511C27.6845 23.1386 27.4038 23.4547 26.9376 23.5047C26.8788 23.5109 26.7888 23.5386 26.7861 23.4431C26.7835 23.3475 26.763 23.2377 26.8815 23.1868C26.9104 23.1782 26.9404 23.1734 26.9706 23.1725C27.0754 23.1679 27.1753 23.1271 27.2533 23.0569C27.3313 22.9867 27.3826 22.8916 27.3984 22.7877C27.4501 22.543 27.377 22.318 27.1596 22.1975C26.8146 21.9971 26.4073 21.9334 26.0179 22.0189C25.7639 22.076 25.648 22.2484 25.6222 22.543C25.6043 22.7547 25.6899 22.8886 25.9181 23.0073C25.9442 23.0239 25.9668 23.0456 25.9844 23.0711C26.0019 23.0966 26.0142 23.1254 26.0203 23.1557C26.0265 23.1861 26.0265 23.2174 26.0202 23.2478C26.014 23.2781 26.0017 23.3069 25.984 23.3324C25.951 23.3725 25.9127 23.3556 25.8762 23.3422C25.751 23.3017 25.6383 23.2296 25.549 23.1328C25.4597 23.036 25.3968 22.9177 25.3664 22.7895C25.2211 22.1984 25.5963 21.6894 26.2282 21.6555C26.5701 21.6315 26.9121 21.7013 27.2175 21.8573C27.3654 21.9279 27.4889 22.0413 27.5721 22.1827C27.6553 22.3241 27.6944 22.4872 27.6845 22.6511Z" fill="#49C4A2"/>
<path id="Vector_33" d="M22.8899 28.579C22.9247 28.8701 22.9576 29.1648 22.9942 29.4585C23.0209 29.6657 22.9942 29.7103 22.8159 29.8157C22.7357 29.8603 22.7126 29.8336 22.7045 29.7532C22.6671 29.3362 22.6154 28.9192 22.5922 28.5031C22.5851 28.3353 22.5276 28.1735 22.4274 28.0388C22.3329 27.9129 22.2491 27.7709 22.16 27.6468C22.0824 27.5397 22.16 27.5013 22.2304 27.4522C22.3008 27.4031 22.3685 27.3531 22.4211 27.4656C22.6502 27.9468 23.045 28.2326 23.5227 28.4335C23.7402 28.5228 23.9443 28.6478 24.1573 28.7523C24.2464 28.7969 24.2696 28.8255 24.1733 28.8978C24.0459 28.9942 23.9407 29.0201 23.7901 28.9237C23.545 28.7683 23.2812 28.6433 23.0263 28.5022C22.9291 28.4451 22.8721 28.4442 22.8899 28.579Z" fill="#49C4A2"/>
<path id="Vector_34" d="M13.6273 13.0237C13.6255 13.0418 13.6195 13.0593 13.6099 13.0747C13.6004 13.0902 13.5874 13.1033 13.5721 13.113C13.4642 13.2148 13.3591 13.3193 13.245 13.4139C13.1496 13.4934 13.1354 13.5523 13.229 13.6523C13.6158 14.0604 13.9945 14.4765 14.376 14.8899C14.4004 14.912 14.4182 14.9404 14.4274 14.972C14.4367 15.0036 14.437 15.0371 14.4285 15.0689C14.4199 15.1007 14.4027 15.1295 14.3788 15.1521C14.3549 15.1747 14.3253 15.1903 14.2931 15.1971C14.2298 15.2176 14.204 15.1694 14.171 15.1355C13.8787 14.82 13.5872 14.5045 13.2967 14.189C13.1862 14.0693 13.0721 13.9542 12.966 13.8318C12.9028 13.7577 12.8564 13.7747 12.7958 13.8318C12.6791 13.9443 12.5543 14.0497 12.4393 14.164C12.3698 14.2336 12.3243 14.2104 12.27 14.1488C12.2156 14.0872 12.1808 14.0443 12.2566 13.9765C12.6389 13.6265 13.0186 13.2738 13.3992 12.9228C13.4322 12.8925 13.4687 12.8586 13.515 12.8969C13.5621 12.9296 13.6006 12.9731 13.6273 13.0237Z" fill="#49C4A2"/>
<path id="Vector_35" d="M23.724 12.679C23.7685 12.6847 23.8093 12.707 23.8381 12.7415C24.2053 13.0773 24.5731 13.413 24.9414 13.7487C25.0074 13.8077 25.0484 13.8541 24.9673 13.9407C24.8862 14.0273 24.8345 14.0112 24.7614 13.9407C24.6536 13.8327 24.5341 13.7362 24.4245 13.63C24.3639 13.571 24.3229 13.5576 24.2579 13.63C23.8737 14.0603 23.4843 14.4863 23.0992 14.9157C22.9852 15.0425 22.8631 15.0247 22.782 14.8684C22.7508 14.8068 22.7962 14.7791 22.8274 14.7425C23.2133 14.3139 23.5966 13.8818 23.986 13.4603C24.0832 13.3567 24.0752 13.2978 23.9727 13.2157C23.8702 13.1335 23.7516 13.0183 23.6438 12.9174C23.6144 12.8897 23.5609 12.863 23.5992 12.8094C23.631 12.7575 23.6736 12.713 23.724 12.679Z" fill="#49C4A2"/>
<path id="Vector_36" d="M25.8193 27.137C25.8193 27.1807 25.7926 27.2031 25.7703 27.2263C25.4343 27.6004 25.0974 27.9736 24.7641 28.3504C24.6928 28.4308 24.6411 28.4397 24.5591 28.362C24.4771 28.2844 24.5172 28.2308 24.576 28.1683C24.6741 28.0647 24.7641 27.9522 24.8657 27.8522C24.9432 27.7763 24.9459 27.7236 24.8657 27.6486C24.5092 27.3316 24.1527 27.0084 23.7962 26.6878C23.7302 26.6289 23.6643 26.5691 23.5992 26.5093C23.4664 26.3843 23.4745 26.3146 23.6215 26.2012C23.6875 26.1494 23.7213 26.2012 23.7588 26.2342C24.0261 26.47 24.2873 26.7084 24.5511 26.9486C24.7293 27.1066 24.9076 27.2602 25.0778 27.4245C25.1562 27.5004 25.199 27.4879 25.2623 27.4093C25.3612 27.2861 25.4708 27.1727 25.5787 27.0521C25.6072 27.0209 25.6375 26.9745 25.6892 27.003C25.7459 27.0325 25.7915 27.0794 25.8193 27.137Z" fill="#49C4A2"/>
<path id="Vector_37" d="M12.0257 22.5421C12.0364 22.6216 11.9945 22.6475 11.9241 22.6564C11.2548 22.7457 10.5872 22.835 9.91613 22.9243C9.78868 22.9412 9.75303 22.877 9.73788 22.7689C9.72273 22.6609 9.75481 22.6046 9.87157 22.5903C10.4063 22.5234 10.9464 22.451 11.4838 22.3796C11.5186 22.3796 11.5525 22.3653 11.5863 22.3635C11.687 22.3582 11.7191 22.3153 11.7022 22.21C11.6603 21.9519 11.6362 21.6903 11.5952 21.4322C11.5774 21.3135 11.622 21.2724 11.7316 21.2599C11.8412 21.2474 11.8635 21.3063 11.8742 21.3974C11.9223 21.7796 11.9749 22.1608 12.0257 22.5421Z" fill="#49C4A2"/>
<path id="Vector_38" d="M10.4103 20.6634C10.9005 20.6634 11.3907 20.6634 11.8809 20.6634C11.884 20.6636 11.8869 20.6648 11.8892 20.667C11.8915 20.6691 11.8929 20.6719 11.8933 20.675C11.953 21.1081 11.8604 21.0947 10.7347 20.7116C10.6883 20.6951 10.6376 20.6951 10.5912 20.7116C9.63046 21.0849 9.59838 20.9902 9.5957 20.7929C9.5957 20.6857 9.62244 20.6277 9.74543 20.6313C9.96735 20.6384 10.1911 20.6313 10.4103 20.6313V20.6634Z" fill="#49C4A2"/>
<path id="Vector_39" d="M25.1598 23.56L25.2784 23.5975L27.0938 24.2225C27.2837 24.2877 27.289 24.3118 27.2133 24.4975C27.1696 24.6047 27.1036 24.5717 27.035 24.5475L25.3719 23.9806L25.1768 23.9136C25.1442 23.9032 25.1151 23.8842 25.0924 23.8586C25.0697 23.8331 25.0543 23.8019 25.0477 23.7683C25.0412 23.7347 25.0437 23.7 25.0551 23.6678C25.0666 23.6355 25.0864 23.6069 25.1126 23.585C25.1272 23.5747 25.1431 23.5663 25.1598 23.56Z" fill="#49C4A2"/>
</g>
</svg>
