<svg width="444" height="290" viewBox="0 0 444 290" fill="none" xmlns="http://www.w3.org/2000/svg">
<path d="M0 100C0 44.7715 44.7715 0 100 0H140V100C140 122.091 122.091 140 100 140H0V100Z" fill="#49C4A2"/>
<path d="M152 0H192C247.228 0 292 44.7715 292 100V140H192C169.909 140 152 122.091 152 100V0Z" fill="#FBB400"/>
<path d="M304 70C304 31.3401 335.34 0 374 0C412.66 0 444 31.3401 444 70V140H324C312.954 140 304 131.046 304 120V70Z" fill="#49C4A2"/>
<path d="M0 150H40C95.2285 150 140 194.772 140 250V290H40C17.9086 290 0 272.091 0 250V150Z" fill="#FBB400"/>
<path d="M152 250C152 194.772 196.772 150 252 150H292V250C292 272.091 274.091 290 252 290H152V250Z" fill="#49C4A2"/>
<path d="M304 150H424C435.046 150 444 158.954 444 170V220C444 258.66 412.66 290 374 290C335.34 290 304 258.66 304 220V150Z" fill="#FBB400"/>
</svg>
