<svg width="66" height="64" viewBox="0 0 66 64" fill="none" xmlns="http://www.w3.org/2000/svg">
<path d="M3.07625 29.9764C3.33007 30.3298 3.84958 30.9207 4.34004 30.6783C4.59891 30.5502 4.82696 30.9379 4.56683 31.0665C3.80867 31.4413 3.1058 30.7854 2.68808 30.2032C2.51861 29.9673 2.90881 29.7431 3.07625 29.9764Z" fill="#212121" stroke="#212121" stroke-width="0.1"/>
<path d="M2.43712 30.8296C2.87277 31.4062 3.86582 32.1555 4.63358 31.8997C4.90937 31.8078 5.0268 32.2419 4.75303 32.3333C3.77439 32.6596 2.60406 31.7916 2.04894 31.0567C1.87392 30.8248 2.26462 30.6013 2.43712 30.8296Z" fill="#212121" stroke="#212121" stroke-width="0.1"/>
<path d="M1.90409 32.0032C2.33798 32.971 3.80002 33.2584 4.71275 32.8473C4.9749 32.7291 5.20371 33.1165 4.93979 33.2355C3.82401 33.7383 2.05765 33.438 1.51592 32.23C1.39823 31.9679 1.78589 31.7391 1.90409 32.0032Z" fill="#212121" stroke="#212121" stroke-width="0.1"/>
<path d="M1.65721 33.8064C2.43406 34.4095 3.85871 34.7169 4.74013 34.1982C4.99041 34.0507 5.2167 34.4393 4.96692 34.5863C3.89205 35.2192 2.27874 34.854 1.33899 34.1247C1.11042 33.9466 1.43092 33.6309 1.65721 33.8064Z" fill="#212121" stroke="#212121" stroke-width="0.1"/>
<path d="M1.34391 35.2293C2.37761 35.7036 3.51789 35.768 4.57988 35.3488C4.8496 35.2422 4.96578 35.6771 4.69934 35.7824C3.5232 36.2468 2.25486 36.1398 1.11711 35.6177C0.853443 35.4968 1.08201 35.1093 1.34391 35.2293Z" fill="#212121" stroke="#212121" stroke-width="0.1"/>
<path d="M1.65684 36.7985C2.72135 36.8187 3.96341 37.1827 4.89937 36.5096C5.13551 36.3399 5.35927 36.7304 5.12616 36.8978C4.10963 37.6289 2.81227 37.2703 1.65684 37.2483C1.36716 37.2428 1.36665 36.7932 1.65684 36.7985Z" fill="#212121" stroke="#212121" stroke-width="0.1"/>
<path d="M2.08963 38.016C2.58185 38.2087 3.10819 38.1162 3.62491 38.1134C4.30075 38.1092 4.91016 37.999 5.51225 37.6833C5.76884 37.5487 5.99614 37.9369 5.73904 38.0715C5.20843 38.3498 4.67856 38.4903 4.08279 38.5453C3.41781 38.6067 2.60156 38.6968 1.97018 38.4496C1.70323 38.3448 1.81914 37.9101 2.08963 38.016Z" fill="#212121" stroke="#212121" stroke-width="0.1"/>
<path d="M3.03549 39.2656C4.03888 39.7119 5.27967 39.5616 6.29797 39.2429C6.57553 39.156 6.69322 39.5901 6.41743 39.6765C5.26982 40.0356 3.93054 40.1531 2.80869 39.6538C2.54401 39.5361 2.77308 39.1487 3.03549 39.2656Z" fill="#212121" stroke="#212121" stroke-width="0.1"/>
<path d="M16.0539 57.0689C15.7903 55.8786 15.6998 54.5939 16.331 53.5018C16.485 53.2351 16.8982 53.4758 16.7439 53.743C16.1789 54.7209 16.2797 55.8799 16.5148 56.9416C16.5812 57.2421 16.1203 57.3697 16.0539 57.0689Z" fill="#212121" stroke="#212121" stroke-width="0.1"/>
<path d="M17.3423 57.9521C17.2825 56.8149 16.9049 55.7117 17.1607 54.5734C17.2284 54.2729 17.6891 54.4002 17.6214 54.7007C17.3782 55.7827 17.7631 56.8684 17.8201 57.9521C17.8366 58.2602 17.3587 58.2587 17.3423 57.9521Z" fill="#212121" stroke="#212121" stroke-width="0.1"/>
<path d="M20.0012 59.4399C19.1187 58.5004 19.0733 57.2473 19.0723 56.0241C19.072 55.6925 19.586 55.693 19.5862 56.0241C19.587 57.0972 19.5837 58.2454 20.3646 59.0765C20.5911 59.3175 20.2285 59.6819 20.0012 59.4399Z" fill="#212121" stroke="#212121" stroke-width="0.1"/>
<path d="M22.0463 59.7557C21.032 59.0286 20.1522 57.3314 20.782 56.1217C20.9325 55.833 21.3679 56.0881 21.2182 56.3762C20.7295 57.3145 21.5235 58.7621 22.3009 59.3195C22.563 59.5074 22.3115 59.9456 22.0463 59.7557Z" fill="#212121" stroke="#212121" stroke-width="0.1"/>
<path d="M23.5951 59.8166C22.6389 58.8645 22.4659 57.854 22.4652 56.5498C22.4649 56.2243 22.9695 56.2243 22.9698 56.5498C22.9705 57.7143 23.0912 58.6028 23.9522 59.4595C24.183 59.6893 23.8259 60.0462 23.5951 59.8166Z" fill="#212121" stroke="#212121" stroke-width="0.1"/>
<path d="M26.1563 59.6215C24.5662 59.5508 23.8889 57.6491 24.1682 56.2873C24.2336 55.9686 24.7203 56.1037 24.6551 56.4214C24.445 57.4455 24.9231 59.0619 26.1563 59.1169C26.4803 59.1313 26.4819 59.6362 26.1563 59.6215Z" fill="#212121" stroke="#212121" stroke-width="0.1"/>
<path d="M27.8775 58.8471C26.5834 58.4079 25.8892 57.352 25.7381 56.024C25.7048 55.7311 26.1629 55.7344 26.196 56.024C26.3226 57.1365 26.915 58.0376 27.9995 58.4056C28.2771 58.5001 28.1579 58.942 27.8775 58.8471Z" fill="#212121" stroke="#212121" stroke-width="0.1"/>
<path d="M29.2555 57.9585C28.0465 57.7014 27.3558 56.0628 26.8504 55.0859C26.715 54.8243 27.1098 54.5929 27.2454 54.8551C27.6912 55.7163 28.3185 57.2917 29.3772 57.517C29.6659 57.5784 29.5434 58.0198 29.2555 57.9585Z" fill="#212121" stroke="#212121" stroke-width="0.1"/>
<path d="M29.5851 56.807C28.8198 55.8753 27.8578 55.0179 27.6598 53.7685C27.6141 53.4796 28.0551 53.3558 28.1013 53.6468C28.2867 54.8179 29.1916 55.6106 29.9086 56.4834C30.0942 56.7095 29.7725 57.035 29.5851 56.807Z" fill="#212121" stroke="#212121" stroke-width="0.1"/>
<path d="M30.5256 55.54C29.9316 54.5767 28.932 53.8377 28.7981 52.6472C28.7646 52.3492 29.2303 52.3525 29.2634 52.6472C29.3831 53.7074 30.3953 54.4421 30.9277 55.3051C31.0853 55.5614 30.683 55.7948 30.5256 55.54Z" fill="#212121" stroke="#212121" stroke-width="0.1"/>
<path d="M14.0313 46.7251C14.051 45.3237 15.9353 45.6846 16.8278 45.8336C17.1248 45.8831 16.9985 46.3337 16.7035 46.2844C16.1517 46.1925 14.5119 45.8036 14.499 46.7251C14.4947 47.0264 14.027 47.0267 14.0313 46.7251Z" fill="#212121" stroke="#212121" stroke-width="0.1"/>
<path d="M13.8114 45.1312C14.513 43.7366 16.2167 43.7027 17.5596 44.0018C17.8538 44.0674 17.729 44.518 17.4353 44.4526C16.2968 44.199 14.8176 44.17 14.2155 45.3668C14.0796 45.6365 13.6763 45.3999 13.8114 45.1312Z" fill="#212121" stroke="#212121" stroke-width="0.1"/>
<path d="M14.1196 43.4476C15.3796 42.4745 16.8742 42.5894 18.3582 42.869C18.6545 42.9248 18.5287 43.3754 18.234 43.3198C16.8671 43.0622 15.5195 42.9526 14.356 43.8514C14.1171 44.036 13.8847 43.6292 14.1196 43.4476Z" fill="#212121" stroke="#212121" stroke-width="0.1"/>
<path d="M14.5946 41.8915C15.9405 41.3824 17.3083 41.4713 18.6335 42.0029C18.9098 42.1138 18.7893 42.5661 18.5092 42.4537C17.255 41.9506 15.9961 41.8592 14.7189 42.3423C14.4363 42.4492 14.3156 41.9971 14.5946 41.8915Z" fill="#212121" stroke="#212121" stroke-width="0.1"/>
<path d="M16.2668 40.4154C17.5351 40.3048 18.8762 40.4152 19.9508 41.1577C20.1971 41.3282 19.9634 41.7335 19.7147 41.5618C18.7024 40.8619 17.4594 40.7791 16.2671 40.8829C15.966 40.9092 15.9688 40.4412 16.2668 40.4154Z" fill="#212121" stroke="#212121" stroke-width="0.1"/>
<path d="M18.2312 39.3738C19.3575 39.446 20.3412 39.9342 20.9949 40.8669C21.1684 41.1144 20.7625 41.3477 20.5908 41.1027C20.0374 40.3133 19.1813 39.9024 18.2309 39.8415C17.9316 39.822 17.9299 39.3543 18.2312 39.3738Z" fill="#212121" stroke="#212121" stroke-width="0.1"/>
<path d="M21.8879 39.0234C22.6413 39.5217 23.1957 40.029 23.2128 40.9847C23.2184 41.2895 22.7456 41.289 22.7403 40.9847C22.7264 40.2084 22.2572 39.8331 21.6498 39.4315C21.3967 39.2641 21.6334 38.8547 21.8879 39.0234Z" fill="#212121" stroke="#212121" stroke-width="0.1"/>
<path d="M22.9229 37.3679C23.2482 37.5538 23.5828 37.6848 23.8579 37.9495C24.2748 38.3508 24.4087 38.9506 24.4824 39.5012C24.5228 39.8025 24.0498 39.7987 24.0099 39.5012C23.9442 39.0115 23.8078 38.5299 23.4265 38.1942C23.2138 38.0071 22.9274 37.9152 22.6845 37.776C22.4203 37.6247 22.658 37.2163 22.9229 37.3679Z" fill="#212121" stroke="#212121" stroke-width="0.1"/>
<path d="M23.9641 36.1101C24.774 36.6942 25.3516 37.364 25.3996 38.399C25.4137 38.7038 24.9412 38.7023 24.9271 38.399C24.8877 37.5453 24.3909 36.9981 23.7254 36.5182C23.4809 36.3417 23.7163 35.9313 23.9641 36.1101Z" fill="#212121" stroke="#212121" stroke-width="0.1"/>
<path d="M24.721 35.5112C25.7277 35.7499 26.3258 36.5869 26.35 37.6034C26.3571 37.9082 25.8846 37.9075 25.8775 37.6034C25.8583 36.7889 25.3971 36.1568 24.5953 35.9671C24.2988 35.8966 24.4245 35.441 24.721 35.5112Z" fill="#212121" stroke="#212121" stroke-width="0.1"/>
<path d="M25.8062 34.6975C26.4002 34.8523 26.9159 35.1238 27.276 35.6314C27.5602 36.0319 27.6316 36.5472 27.6723 37.0232C27.6983 37.327 27.2253 37.3243 27.1998 37.0232C27.1152 36.0342 26.675 35.4122 25.6802 35.1533C25.3859 35.0763 25.5109 34.6204 25.8062 34.6975Z" fill="#212121" stroke="#212121" stroke-width="0.1"/>
<path d="M27.6995 34.3149C28.7014 34.6973 29.1143 35.663 29.2242 36.6712C29.2573 36.9738 28.7845 36.9708 28.7516 36.6712C28.6673 35.8974 28.3566 35.0693 27.5737 34.7708C27.2921 34.6632 27.4141 34.2063 27.6995 34.3149Z" fill="#212121" stroke="#212121" stroke-width="0.1"/>
<path d="M30.0273 34.6516C30.2437 34.9425 30.4323 35.2408 30.5356 35.5913C30.6369 35.9356 30.619 36.3169 30.6281 36.6713C30.6359 36.9761 30.1634 36.9753 30.1555 36.6713C30.1482 36.3793 30.1548 36.0828 30.0987 35.7949C30.0326 35.4539 29.8219 35.1627 29.6194 34.8897C29.4373 34.645 29.8477 34.4099 30.0273 34.6516Z" fill="#212121" stroke="#212121" stroke-width="0.1"/>
<path d="M20.0856 50.5926C20.1831 51.4616 20.4889 52.2943 21.0547 52.9684C21.215 53.1596 20.9408 53.4366 20.7789 53.2442C20.1404 52.483 19.8058 51.5735 19.6959 50.5926C19.6676 50.3431 20.0578 50.3459 20.0856 50.5926Z" fill="#212121" stroke="#212121" stroke-width="0.1"/>
<path d="M20.8342 49.7202C20.8297 50.5458 21.2017 51.4058 21.7758 51.9937C21.9513 52.1738 21.676 52.4496 21.5 52.2695C20.8554 51.6091 20.4392 50.6473 20.4443 49.7202C20.4458 49.4689 20.8355 49.4689 20.8342 49.7202Z" fill="#212121" stroke="#212121" stroke-width="0.1"/>
<path d="M21.9091 49.2587C21.7548 50.0997 22.1862 51.046 22.8731 51.5269C23.0774 51.6696 22.8827 52.0078 22.6764 51.8633C21.8326 51.2726 21.3447 50.1838 21.5333 49.1549C21.5788 48.9082 21.9543 49.0132 21.9091 49.2587Z" fill="#212121" stroke="#212121" stroke-width="0.1"/>
<path d="M23.2187 49.0789C23.1722 49.8858 23.8438 50.6511 24.4817 51.065C24.6916 51.2011 24.4966 51.5388 24.285 51.4014C23.5359 50.9152 22.7744 50.026 22.829 49.0789C22.8434 48.8291 23.2331 48.8279 23.2187 49.0789Z" fill="#212121" stroke="#212121" stroke-width="0.1"/>
<path d="M24.3771 49.1813C24.5215 49.8958 25.1443 50.394 25.6305 50.8906C25.806 51.0704 25.5307 51.3462 25.3547 51.1664C24.8213 50.6208 24.1601 50.0695 24.0013 49.2848C23.9515 49.0393 24.3273 48.935 24.3771 49.1813Z" fill="#212121" stroke="#212121" stroke-width="0.1"/>
<path d="M13.7571 33.9276C14.3542 33.0305 13.7485 31.5821 13.0581 30.9141C12.8649 30.727 13.1596 30.433 13.3525 30.6196C14.1741 31.4147 14.8189 33.0825 14.1165 34.1377C13.9688 34.3599 13.6079 34.1518 13.7571 33.9276Z" fill="#212121" stroke="#212121" stroke-width="0.1"/>
<path d="M14.9892 33.5482C15.3685 33.1532 15.164 32.4829 15.0102 32.0336C14.8109 31.4522 14.3048 31.061 13.9323 30.5948C13.7666 30.3874 14.0593 30.0907 14.2267 30.3006C14.7003 30.8936 15.2112 31.3391 15.4627 32.0727C15.658 32.6417 15.7299 33.3779 15.2837 33.8426C15.0976 34.0366 14.8036 33.7419 14.9892 33.5482Z" fill="#212121" stroke="#212121" stroke-width="0.1"/>
<path d="M16.0312 32.5772C16.0284 32.0665 15.9998 31.5753 15.846 31.0843C15.6544 30.4736 15.12 30.0542 14.628 29.6902C14.4206 29.5367 14.6224 29.1844 14.8328 29.3402C15.367 29.7357 15.842 30.1408 16.1433 30.7454C16.4214 31.3028 16.4332 31.9693 16.4368 32.5772C16.438 32.8386 16.0327 32.8386 16.0312 32.5772Z" fill="#212121" stroke="#212121" stroke-width="0.1"/>
<path d="M16.8055 31.2989C16.5603 30.3281 16.0943 29.4434 15.3142 28.7994C15.1071 28.6281 15.4033 28.3354 15.6087 28.5049C16.4393 29.1908 16.9459 30.1546 17.2071 31.188C17.273 31.4486 16.8714 31.559 16.8055 31.2989Z" fill="#212121" stroke="#212121" stroke-width="0.1"/>
<path d="M17.5281 29.3082C17.1912 28.6271 16.5138 28.1444 15.8547 27.803C15.6163 27.6795 15.8269 27.3203 16.0648 27.4436C16.7818 27.8148 17.5213 28.3581 17.8877 29.0981C18.0062 29.3377 17.6471 29.5489 17.5281 29.3082Z" fill="#212121" stroke="#212121" stroke-width="0.1"/>
<path d="M18.9707 27.279C18.6396 26.4974 18.1792 25.796 17.4501 25.3356C17.2309 25.1972 17.4332 24.8479 17.6539 24.9873C18.4406 25.4844 18.9604 26.2281 19.319 27.0752C19.419 27.3118 19.0718 27.5177 18.9707 27.279Z" fill="#212121" stroke="#212121" stroke-width="0.1"/>
<path d="M19.7977 26.6432C19.7292 26.1911 19.5057 25.8057 19.2633 25.4253C19.0016 25.0154 18.748 24.5091 18.3498 24.2194C18.1417 24.0681 18.3427 23.7178 18.5536 23.8711C18.9551 24.1631 19.1721 24.573 19.4469 24.9753C19.7719 25.4511 20.0992 25.9562 20.1871 26.5358C20.225 26.7901 19.8366 26.8995 19.7977 26.6432Z" fill="#212121" stroke="#212121" stroke-width="0.1"/>
<path d="M20.9156 25.8464C20.8295 24.8587 20.1983 23.6959 19.3192 23.2024C19.0927 23.0751 19.2957 22.7266 19.523 22.8542C20.5337 23.4214 21.2209 24.7162 21.3192 25.8464C21.3414 26.1055 20.9381 26.1035 20.9156 25.8464Z" fill="#212121" stroke="#212121" stroke-width="0.1"/>
<path d="M21.9702 24.4617C21.6762 23.3045 20.8039 22.5345 19.9278 21.7915C19.729 21.623 20.0159 21.3389 20.2129 21.5061C21.1451 22.2968 22.0477 23.128 22.3593 24.3544C22.4235 24.6067 22.0343 24.7135 21.9702 24.4617Z" fill="#212121" stroke="#212121" stroke-width="0.1"/>
<path d="M22.0222 21.6988C21.7601 21.4442 21.5156 21.172 21.258 20.9134C20.9299 20.5843 20.5445 20.3385 20.1677 20.0711C19.9576 19.9218 20.1589 19.5718 20.3715 19.7228C20.7153 19.967 21.0699 20.1926 21.3843 20.4754C21.7103 20.7689 21.9932 21.1078 22.3076 21.4134C22.4943 21.595 22.2086 21.8799 22.0222 21.6988Z" fill="#212121" stroke="#212121" stroke-width="0.1"/>
<path d="M19.7216 29.1005C20.5985 28.8929 21.6322 28.7618 22.2618 28.0516C22.397 27.8994 22.6189 28.1229 22.4848 28.2744C21.8146 29.0308 20.7389 29.1836 19.8057 29.4046C19.608 29.4513 19.5241 29.1475 19.7216 29.1005Z" fill="#212121" stroke="#212121" stroke-width="0.1"/>
<path d="M21.5218 29.9899C22.2964 29.6224 23.5173 29.5333 23.768 28.5574C23.8367 28.2892 24.2514 28.4031 24.1825 28.6716C23.8865 29.8245 22.6528 29.9275 21.739 30.3609C21.4898 30.4791 21.2718 30.1086 21.5218 29.9899Z" fill="#212121" stroke="#212121" stroke-width="0.1"/>
<path d="M23.9238 30.2879C24.6174 29.999 25.4904 29.4421 25.5521 28.6142C25.5703 28.37 25.9526 28.3683 25.9344 28.6142C25.8579 29.6386 24.8939 30.2947 24.0254 30.6567C23.7981 30.7516 23.6996 30.3816 23.9238 30.2879Z" fill="#212121" stroke="#212121" stroke-width="0.1"/>
<path d="M26.9594 29.3143C27.3809 28.7703 27.1864 27.9934 27.1766 27.3605C27.172 27.083 27.6024 27.0832 27.6067 27.3605C27.619 28.151 27.7839 28.9466 27.2637 29.6186C27.0942 29.8376 26.7919 29.5307 26.9594 29.3143Z" fill="#212121" stroke="#212121" stroke-width="0.1"/>
<path d="M5.61703 21.637C6.63659 21.4198 7.05279 19.9661 7.23286 19.0799C7.29221 18.7869 7.73924 18.9115 7.67989 19.2032C7.46623 20.2558 6.94091 21.8285 5.74027 22.084C5.44882 22.1462 5.32482 21.6991 5.61703 21.637Z" fill="#212121" stroke="#212121" stroke-width="0.1"/>
<path d="M6.7707 21.8586C7.93447 21.1032 8.32719 20.1051 8.58429 18.7966C8.64187 18.5034 9.08864 18.6279 9.03131 18.9199C8.7487 20.3602 8.27441 21.4353 7.00456 22.2589C6.75302 22.4223 6.52093 22.0207 6.7707 21.8586Z" fill="#212121" stroke="#212121" stroke-width="0.1"/>
<path d="M8.7507 21.6401C9.68464 20.6784 10.4491 19.4681 10.4961 18.0937C10.5062 17.7954 10.9701 17.7944 10.9598 18.0937C10.9085 19.5934 10.1011 20.9152 9.07877 21.9679C8.86991 22.1826 8.54259 21.8545 8.7507 21.6401Z" fill="#212121" stroke="#212121" stroke-width="0.1"/>
<path d="M11.3447 20.4977C11.9753 19.4569 12.2571 18.1178 11.8907 16.9374C11.8015 16.651 12.2493 16.5295 12.3377 16.8142C12.74 18.1085 12.4375 19.5895 11.7452 20.7318C11.5904 20.9869 11.1894 20.754 11.3447 20.4977Z" fill="#212121" stroke="#212121" stroke-width="0.1"/>
<path d="M13.6198 17.629C14.0429 16.8567 14.2237 16.0068 14.3348 15.1403C14.3719 14.8512 14.8311 14.8476 14.7935 15.1403C14.6715 16.0897 14.4793 17.0138 14.0158 17.8606C13.8739 18.12 13.4777 17.8886 13.6198 17.629Z" fill="#212121" stroke="#212121" stroke-width="0.1"/>
<path d="M14.5555 17.8514C15.5397 17.3021 16.0685 16.2525 16.4764 15.2456C16.5863 14.9751 17.0297 15.0933 16.9189 15.3676C16.465 16.4874 15.8814 17.6368 14.7868 18.2477C14.5284 18.3916 14.2974 17.9956 14.5555 17.8514Z" fill="#212121" stroke="#212121" stroke-width="0.1"/>
<path d="M15.9311 18.192C16.5975 17.5278 17.0355 16.7444 17.3297 15.8554C17.4221 15.5758 17.8651 15.6958 17.7722 15.9771C17.4534 16.9393 16.9766 17.7975 16.2551 18.5163C16.0455 18.7251 15.7212 18.4011 15.9311 18.192Z" fill="#212121" stroke="#212121" stroke-width="0.1"/>
<path d="M17.1405 18.5521C18.2335 17.547 19.172 16.3918 19.7716 15.0247C19.8903 14.7545 20.2853 14.9881 20.1676 15.2563C19.5536 16.656 18.5838 17.8475 17.4645 18.8767C17.247 19.0762 16.922 18.7527 17.1405 18.5521Z" fill="#212121" stroke="#212121" stroke-width="0.1"/>
<path d="M19.2026 18.1369C19.5474 17.7363 19.9835 17.4487 20.3866 17.1123C20.9682 16.6269 21.2357 15.8909 21.3481 15.1625C21.3933 14.8708 21.8352 14.9951 21.7905 15.2843C21.6943 15.9068 21.4827 16.5839 21.0657 17.0731C20.6129 17.604 19.9822 17.9323 19.5269 18.4612C19.3337 18.6857 19.0109 18.3599 19.2026 18.1369Z" fill="#212121" stroke="#212121" stroke-width="0.1"/>
<path d="M22.5542 13.4611C22.5671 12.4794 22.9734 11.4088 23.9518 11.0429C24.2663 10.9252 24.4006 11.4275 24.09 11.5437C23.3475 11.8215 23.083 12.7368 23.0734 13.4608C23.0694 13.796 22.5496 13.7962 22.5542 13.4611Z" fill="#212121" stroke="#212121" stroke-width="0.1"/>
<path d="M23.2177 14.7173C23.2316 13.6942 23.4904 12.4946 24.3754 11.8728C24.6504 11.6796 24.9095 12.1304 24.6378 12.3214C23.9213 12.8247 23.7483 13.9028 23.7372 14.7171C23.7326 15.0522 23.2129 15.0525 23.2177 14.7173Z" fill="#212121" stroke="#212121" stroke-width="0.1"/>
<path d="M24.1038 15.5331C23.9457 14.4148 24.1637 13.2164 25.1012 12.4954C25.3668 12.291 25.625 12.7426 25.3636 12.9439C24.6349 13.5043 24.4839 14.5395 24.6049 15.3949C24.6511 15.7225 24.1505 15.8637 24.1038 15.5331Z" fill="#212121" stroke="#212121" stroke-width="0.1"/>
<path d="M25.1144 15.6894C25.1174 14.8179 25.2237 14.0402 25.7662 13.3301C25.9665 13.0677 26.4183 13.3258 26.2145 13.5922C25.725 14.2329 25.6366 14.9032 25.6336 15.6894C25.6326 16.0243 25.1131 16.0243 25.1144 15.6894Z" fill="#212121" stroke="#212121" stroke-width="0.1"/>
<path d="M26.3531 16.0932C25.848 15.3269 26.1102 13.948 26.8903 13.4545C27.1744 13.2749 27.4348 13.7247 27.1527 13.903C26.6049 14.2493 26.4569 15.308 26.8014 15.8308C26.9865 16.1116 26.5365 16.3715 26.3531 16.0932Z" fill="#212121" stroke="#212121" stroke-width="0.1"/>
<path d="M27.3044 16.0667C26.9572 15.1381 27.2047 14.2059 27.875 13.4952C28.1053 13.251 28.472 13.6192 28.2424 13.8627C27.6901 14.4481 27.5221 15.1717 27.8055 15.9286C27.9232 16.243 27.4209 16.3776 27.3044 16.0667Z" fill="#212121" stroke="#212121" stroke-width="0.1"/>
<path d="M28.3851 15.6202C28.4927 14.98 28.3687 14.4168 28.8786 13.9173C29.118 13.6829 29.4857 14.0499 29.246 14.2847C28.8417 14.6805 28.9723 15.2455 28.8862 15.7584C28.8308 16.0882 28.33 15.9481 28.3851 15.6202Z" fill="#212121" stroke="#212121" stroke-width="0.1"/>
<path d="M11.5341 51.1439C10.4107 51.6261 8.7315 50.8202 8.93708 49.4632C8.9828 49.1619 9.43891 49.2902 9.39395 49.589C9.2553 50.5052 10.5746 51.0442 11.2949 50.7351C11.5727 50.6159 11.8142 51.0237 11.5341 51.1439Z" fill="#212121" stroke="#212121" stroke-width="0.1"/>
<path d="M11.6238 50.4055C11.1464 50.5351 10.7108 50.2345 10.3858 49.9125C9.93772 49.468 9.85236 48.8278 9.84554 48.2249C9.842 47.9194 10.3158 47.9196 10.3191 48.2249C10.3239 48.6356 10.3547 49.0528 10.5797 49.4087C10.7487 49.6754 11.1596 50.0406 11.498 49.9489C11.7932 49.8686 11.9183 50.3257 11.6238 50.4055Z" fill="#212121" stroke="#212121" stroke-width="0.1"/>
<path d="M11.7214 49.9628C10.9994 49.4433 10.5829 48.5598 10.6261 47.6719C10.6407 47.3678 11.1148 47.3663 11.0996 47.6719C11.065 48.3833 11.3729 49.1311 11.9606 49.5539C12.2061 49.7304 11.9702 50.1416 11.7214 49.9628Z" fill="#212121" stroke="#212121" stroke-width="0.1"/>
<path d="M12.3619 48.7522C11.6507 48.5936 11.4926 47.4306 11.459 46.8411C11.4416 46.5358 11.9153 46.5376 11.9325 46.8411C11.953 47.198 12.05 48.1978 12.4876 48.2956C12.7856 48.3618 12.6591 48.8186 12.3619 48.7522Z" fill="#212121" stroke="#212121" stroke-width="0.1"/>
<path d="M13.0686 48.1752C12.3981 47.6524 12.3597 46.7222 12.2917 45.9431C12.2652 45.6385 12.739 45.6413 12.7653 45.9431C12.8231 46.6018 12.836 47.3976 13.4035 47.8403C13.6444 48.0279 13.3065 48.3608 13.0686 48.1752Z" fill="#212121" stroke="#212121" stroke-width="0.1"/>
<path d="M31.5287 54.092C30.39 53.6887 29.7157 52.1511 29.5957 51.0313C29.5636 50.733 30.0293 50.736 30.0609 51.0313C30.1571 51.9248 30.739 53.3197 31.6528 53.6432C31.9333 53.7427 31.8124 54.1922 31.5287 54.092Z" fill="#212121" stroke="#212121" stroke-width="0.1"/>
<path d="M31.9052 51.7808C30.9717 51.1027 30.676 49.8417 30.6593 48.7433C30.6545 48.443 31.12 48.4433 31.1245 48.7433C31.1384 49.6535 31.3554 50.8089 32.1401 51.379C32.3802 51.5532 32.1484 51.9573 31.9052 51.7808Z" fill="#212121" stroke="#212121" stroke-width="0.1"/>
<path d="M14.8734 55.8286C14.5249 54.8598 14.9227 53.9532 15.1896 53.0177C15.274 52.722 15.7351 52.8477 15.6503 53.145C15.4093 53.9898 15.0181 54.8224 15.3341 55.7013C15.4386 55.992 14.9767 56.1163 14.8734 55.8286Z" fill="#212121" stroke="#212121" stroke-width="0.1"/>
<path d="M19.9105 49.3634C19.4863 49.3712 19.0839 49.4323 18.693 49.6023C18.2455 49.7968 18.0396 50.1413 17.7828 50.5269C17.6411 50.7393 17.2961 50.5403 17.4391 50.3261C17.7123 49.9162 17.9267 49.5839 18.3601 49.326C18.822 49.0512 19.3835 48.975 19.9108 48.9651C20.1674 48.9606 20.1669 49.3586 19.9105 49.3634Z" fill="#212121" stroke="#212121" stroke-width="0.1"/>
<path d="M19.5618 48.5276C18.7241 48.5238 17.0744 48.6908 17.0936 49.8293C17.0979 50.0861 16.6996 50.0856 16.6956 49.8293C16.6723 48.4223 18.4827 48.1248 19.5621 48.1296C19.8184 48.1306 19.8187 48.5286 19.5618 48.5276Z" fill="#212121" stroke="#212121" stroke-width="0.1"/>
<path d="M18.0296 47.9063C17.4345 48.0331 16.3001 48.349 16.2043 49.0789C16.1713 49.3295 15.773 49.3327 15.8063 49.0789C15.9326 48.1185 17.1017 47.6977 17.924 47.5227C18.174 47.4691 18.2806 47.8528 18.0296 47.9063Z" fill="#212121" stroke="#212121" stroke-width="0.1"/>
<path d="M32.0234 10.7828C32.0234 7.16476 30.225 4 25.8836 4C21.5424 4 20.4794 8.60305 20.4794 8.60305C20.4794 8.60305 14.4651 5.90502 12.0899 13.2483C7.57697 12.7805 3.67426 17.4447 5.62574 21.8535C3.08252 23.134 1.77959 25.6467 3.46842 29.757C0.525154 31.0326 0.312009 38.0147 3.66795 40.2966C3.06106 43.0241 3.34114 45.5512 6.35764 46.7955C6.05584 50.1143 8.67078 55.6743 14.6917 55.3139C15.5966 58.3413 21.7831 60.4567 25.2555 59.6381C28.7281 58.8199 32.0232 56.4289 32.0232 51.0937C32.0234 45.7583 32.0234 10.7828 32.0234 10.7828Z" stroke="#212121" stroke-width="1.5" stroke-miterlimit="10"/>
<path d="M5.62572 21.8534C5.62572 21.8534 10.8263 23.594 13.315 17.392C14.283 18.1729 20.139 21.1654 24.021 15.1407" stroke="#212121" stroke-width="1.5" stroke-miterlimit="10"/>
<path d="M22.3723 11.8019C22.3723 11.8019 22.6221 17.7215 29.29 15.6655" stroke="#212121" stroke-width="1.5" stroke-miterlimit="10"/>
<path d="M3.46868 29.7567C3.46868 29.7567 6.91805 27.8587 9.99593 29.0394C13.0738 30.2199 12.9698 34.2976 12.9698 34.2976C12.9698 34.2976 19.5955 32.5062 21.6755 39.6075" stroke="#212121" stroke-width="1.5" stroke-miterlimit="10"/>
<path d="M32.0234 35.4569C32.0234 35.4569 24.1647 31.6815 21.8589 39.7554C18.8535 38.6545 12.8356 39.7705 14.2161 47.2237" stroke="#212121" stroke-width="1.5" stroke-miterlimit="10"/>
<path d="M11.2012 51.5798C11.2012 51.5798 11.6932 47.0859 15.9182 47.0884C19.5805 47.0907 20.4993 49.8614 20.4993 49.8614" stroke="#212121" stroke-width="1.5" stroke-miterlimit="10"/>
<path d="M19.3156 54.8249C19.3156 54.8249 17.9372 46.227 27.2173 49.7744" stroke="#212121" stroke-width="1.5" stroke-miterlimit="10"/>
<path d="M12.9698 34.2975C12.9698 34.2975 18.6363 33.2381 17.9665 27.7059C17.9665 27.7059 25.8311 25.7122 20.7166 18.2061" stroke="#212121" stroke-width="1.5" stroke-miterlimit="10"/>
<path d="M17.9667 27.706C17.9667 27.706 24.7227 34.6694 29.6528 26.5897" stroke="#212121" stroke-width="1.5" stroke-miterlimit="10"/>
<path d="M62.965 29.9764C62.7112 30.3298 62.1917 30.9207 61.7012 30.6783C61.4424 30.5502 61.2143 30.9379 61.4744 31.0665C62.2326 31.4413 62.9355 30.7854 63.3532 30.2032C63.5226 29.9673 63.1325 29.7431 62.965 29.9764Z" fill="#212121" stroke="#212121" stroke-width="0.1"/>
<path d="M63.6041 30.8296C63.1685 31.4062 62.1754 32.1555 61.4077 31.8997C61.1319 31.8078 61.0145 32.2419 61.2882 32.3333C62.2669 32.6596 63.4372 31.7916 63.9923 31.0567C64.1673 30.8248 63.7766 30.6013 63.6041 30.8296Z" fill="#212121" stroke="#212121" stroke-width="0.1"/>
<path d="M64.1372 32.0032C63.7033 32.971 62.2412 33.2584 61.3285 32.8473C61.0664 32.7291 60.8375 33.1165 61.1015 33.2355C62.2172 33.7383 63.9836 33.438 64.5253 32.23C64.643 31.9679 64.2554 31.7391 64.1372 32.0032Z" fill="#212121" stroke="#212121" stroke-width="0.1"/>
<path d="M64.3841 33.8064C63.6072 34.4095 62.1825 34.7169 61.3011 34.1982C61.0509 34.0507 60.8246 34.4393 61.0743 34.5863C62.1492 35.2192 63.7625 34.854 64.7023 34.1247C64.9308 33.9466 64.6103 33.6309 64.3841 33.8064Z" fill="#212121" stroke="#212121" stroke-width="0.1"/>
<path d="M64.6974 35.2293C63.6637 35.7036 62.5234 35.768 61.4614 35.3488C61.1917 35.2422 61.0755 35.6771 61.3419 35.7824C62.5181 36.2468 63.7864 36.1398 64.9242 35.6177C65.1878 35.4968 64.9593 35.1093 64.6974 35.2293Z" fill="#212121" stroke="#212121" stroke-width="0.1"/>
<path d="M64.3844 36.7985C63.3199 36.8187 62.0779 37.1827 61.1419 36.5096C60.9057 36.3399 60.682 36.7304 60.9151 36.8978C61.9316 37.6289 63.229 37.2703 64.3844 37.2483C64.6741 37.2428 64.6746 36.7932 64.3844 36.7985Z" fill="#212121" stroke="#212121" stroke-width="0.1"/>
<path d="M63.9516 38.016C63.4594 38.2087 62.9331 38.1162 62.4163 38.1134C61.7405 38.1092 61.1311 37.999 60.529 37.6833C60.2724 37.5487 60.0451 37.9369 60.3022 38.0715C60.8328 38.3498 61.3627 38.4903 61.9585 38.5453C62.6234 38.6067 63.4397 38.6968 64.0711 38.4496C64.338 38.3448 64.2221 37.9101 63.9516 38.016Z" fill="#212121" stroke="#212121" stroke-width="0.1"/>
<path d="M63.0058 39.2656C62.0024 39.7119 60.7616 39.5616 59.7433 39.2429C59.4657 39.156 59.348 39.5901 59.6238 39.6765C60.7714 40.0356 62.1107 40.1531 63.2326 39.6538C63.4972 39.5361 63.2682 39.1487 63.0058 39.2656Z" fill="#212121" stroke="#212121" stroke-width="0.1"/>
<path d="M49.9873 57.0689C50.251 55.8786 50.3414 54.5939 49.7103 53.5018C49.5562 53.2351 49.1431 53.4758 49.2974 53.743C49.8623 54.7209 49.7616 55.8799 49.5264 56.9416C49.46 57.2421 49.9209 57.3697 49.9873 57.0689Z" fill="#212121" stroke="#212121" stroke-width="0.1"/>
<path d="M48.6989 57.9521C48.7588 56.8149 49.1364 55.7117 48.8805 54.5734C48.8129 54.2729 48.3522 54.4002 48.4199 54.7007C48.6631 55.7827 48.2782 56.8684 48.2211 57.9521C48.2047 58.2602 48.6825 58.2587 48.6989 57.9521Z" fill="#212121" stroke="#212121" stroke-width="0.1"/>
<path d="M46.0401 59.4399C46.9225 58.5004 46.968 57.2473 46.969 56.0241C46.9692 55.6925 46.4553 55.693 46.455 56.0241C46.4543 57.0972 46.4576 58.2454 45.6767 59.0765C45.4501 59.3175 45.8128 59.6819 46.0401 59.4399Z" fill="#212121" stroke="#212121" stroke-width="0.1"/>
<path d="M43.995 59.7557C45.0092 59.0286 45.8891 57.3314 45.2592 56.1217C45.1087 55.833 44.6733 56.0881 44.8231 56.3762C45.3118 57.3145 44.5177 58.7621 43.7404 59.3195C43.4782 59.5074 43.7298 59.9456 43.995 59.7557Z" fill="#212121" stroke="#212121" stroke-width="0.1"/>
<path d="M42.4462 59.8166C43.4023 58.8645 43.5753 57.854 43.5761 56.5498C43.5764 56.2243 43.0718 56.2243 43.0715 56.5498C43.0707 57.7143 42.95 58.6028 42.0891 59.4595C41.8582 59.6893 42.2153 60.0462 42.4462 59.8166Z" fill="#212121" stroke="#212121" stroke-width="0.1"/>
<path d="M39.8849 59.6215C41.475 59.5508 42.1524 57.6491 41.8731 56.2873C41.8076 55.9686 41.321 56.1037 41.3861 56.4214C41.5963 57.4455 41.1182 59.0619 39.8849 59.1169C39.5609 59.1313 39.5594 59.6362 39.8849 59.6215Z" fill="#212121" stroke="#212121" stroke-width="0.1"/>
<path d="M38.1637 58.8471C39.4578 58.4079 40.1521 57.352 40.3031 56.024C40.3365 55.7311 39.8783 55.7344 39.8452 56.024C39.7187 57.1365 39.1262 58.0376 38.0417 58.4056C37.7642 58.5001 37.8834 58.942 38.1637 58.8471Z" fill="#212121" stroke="#212121" stroke-width="0.1"/>
<path d="M36.7858 57.9585C37.9948 57.7014 38.6855 56.0628 39.1908 55.0859C39.3262 54.8243 38.9315 54.5929 38.7959 54.8551C38.3501 55.7163 37.7228 57.2917 36.664 57.517C36.3754 57.5784 36.4979 58.0198 36.7858 57.9585Z" fill="#212121" stroke="#212121" stroke-width="0.1"/>
<path d="M36.4562 56.807C37.2214 55.8753 38.1834 55.0179 38.3814 53.7685C38.4271 53.4796 37.9862 53.3558 37.9399 53.6468C37.7546 54.8179 36.8497 55.6106 36.1327 56.4834C35.947 56.7095 36.2688 57.035 36.4562 56.807Z" fill="#212121" stroke="#212121" stroke-width="0.1"/>
<path d="M35.5156 55.54C36.1096 54.5767 37.1093 53.8377 37.2431 52.6472C37.2767 52.3492 36.811 52.3525 36.7779 52.6472C36.6582 53.7074 35.646 54.4421 35.1136 55.3051C34.956 55.5614 35.3583 55.7948 35.5156 55.54Z" fill="#212121" stroke="#212121" stroke-width="0.1"/>
<path d="M52.01 46.7251C51.9903 45.3237 50.106 45.6846 49.2135 45.8336C48.9165 45.8831 49.0427 46.3337 49.3377 46.2844C49.8896 46.1925 51.5294 45.8036 51.5423 46.7251C51.5466 47.0264 52.0143 47.0267 52.01 46.7251Z" fill="#212121" stroke="#212121" stroke-width="0.1"/>
<path d="M52.2298 45.1312C51.5282 43.7366 49.8245 43.7027 48.4817 44.0018C48.1875 44.0674 48.3122 44.518 48.6059 44.4526C49.7445 44.199 51.2237 44.17 51.8257 45.3668C51.9616 45.6365 52.365 45.3999 52.2298 45.1312Z" fill="#212121" stroke="#212121" stroke-width="0.1"/>
<path d="M51.9217 43.4476C50.6617 42.4745 49.167 42.5894 47.683 42.869C47.3868 42.9248 47.5126 43.3754 47.8073 43.3198C49.1741 43.0622 50.5217 42.9526 51.6853 43.8514C51.9242 44.036 52.1565 43.6292 51.9217 43.4476Z" fill="#212121" stroke="#212121" stroke-width="0.1"/>
<path d="M51.4466 41.8915C50.1008 41.3824 48.7329 41.4713 47.4078 42.0029C47.1315 42.1138 47.2519 42.5661 47.532 42.4537C48.7862 41.9506 50.0452 41.8592 51.3224 42.3423C51.605 42.4492 51.7257 41.9971 51.4466 41.8915Z" fill="#212121" stroke="#212121" stroke-width="0.1"/>
<path d="M49.7744 40.4154C48.5061 40.3048 47.1651 40.4152 46.0904 41.1577C45.8442 41.3282 46.0778 41.7335 46.3266 41.5618C47.3388 40.8619 48.5819 40.7791 49.7742 40.8829C50.0752 40.9092 50.0725 40.4412 49.7744 40.4154Z" fill="#212121" stroke="#212121" stroke-width="0.1"/>
<path d="M47.8101 39.3738C46.6837 39.446 45.7 39.9342 45.0464 40.8669C44.8729 41.1144 45.2787 41.3477 45.4505 41.1027C46.0038 40.3133 46.86 39.9024 47.8104 39.8415C48.1096 39.822 48.1114 39.3543 47.8101 39.3738Z" fill="#212121" stroke="#212121" stroke-width="0.1"/>
<path d="M44.1533 39.0234C43.3999 39.5217 42.8456 40.029 42.8284 40.9847C42.8229 41.2895 43.2956 41.289 43.3009 40.9847C43.3148 40.2084 43.7841 39.8331 44.3915 39.4315C44.6445 39.2641 44.4079 38.8547 44.1533 39.0234Z" fill="#212121" stroke="#212121" stroke-width="0.1"/>
<path d="M43.1184 37.3679C42.7931 37.5538 42.4584 37.6848 42.1834 37.9495C41.7664 38.3508 41.6326 38.9506 41.5588 39.5012C41.5184 39.8025 41.9915 39.7987 42.0314 39.5012C42.097 39.0115 42.2334 38.5299 42.6148 38.1942C42.8274 38.0071 43.1138 37.9152 43.3568 37.776C43.6209 37.6247 43.3833 37.2163 43.1184 37.3679Z" fill="#212121" stroke="#212121" stroke-width="0.1"/>
<path d="M42.0772 36.1101C41.2672 36.6942 40.6897 37.364 40.6417 38.399C40.6275 38.7038 41.1001 38.7023 41.1142 38.399C41.1536 37.5453 41.6504 36.9981 42.3158 36.5182C42.5603 36.3417 42.3249 35.9313 42.0772 36.1101Z" fill="#212121" stroke="#212121" stroke-width="0.1"/>
<path d="M41.3202 35.5112C40.3135 35.7499 39.7155 36.5869 39.6912 37.6034C39.6842 37.9082 40.1567 37.9075 40.1638 37.6034C40.183 36.7889 40.6441 36.1568 41.446 35.9671C41.7425 35.8966 41.6167 35.441 41.3202 35.5112Z" fill="#212121" stroke="#212121" stroke-width="0.1"/>
<path d="M40.2351 34.6975C39.6411 34.8523 39.1254 35.1238 38.7652 35.6314C38.4811 36.0319 38.4096 36.5472 38.369 37.0232C38.3429 37.327 38.816 37.3243 38.8415 37.0232C38.9261 36.0342 39.3663 35.4122 40.3611 35.1533C40.6553 35.0763 40.5303 34.6204 40.2351 34.6975Z" fill="#212121" stroke="#212121" stroke-width="0.1"/>
<path d="M38.3418 34.3149C37.3399 34.6973 36.9269 35.663 36.8171 36.6712C36.784 36.9738 37.2568 36.9708 37.2896 36.6712C37.374 35.8974 37.6846 35.0693 38.4675 34.7708C38.7491 34.6632 38.6271 34.2063 38.3418 34.3149Z" fill="#212121" stroke="#212121" stroke-width="0.1"/>
<path d="M36.014 34.6516C35.7976 34.9425 35.6089 35.2408 35.5056 35.5913C35.4043 35.9356 35.4223 36.3169 35.4132 36.6713C35.4054 36.9761 35.8779 36.9753 35.8857 36.6713C35.893 36.3793 35.8865 36.0828 35.9425 35.7949C36.0087 35.4539 36.2193 35.1627 36.4219 34.8897C36.604 34.645 36.1936 34.4099 36.014 34.6516Z" fill="#212121" stroke="#212121" stroke-width="0.1"/>
<path d="M45.9556 50.5926C45.8582 51.4616 45.5523 52.2943 44.9866 52.9684C44.8262 53.1596 45.1005 53.4366 45.2624 53.2442C45.9008 52.483 46.2355 51.5735 46.3453 50.5926C46.3736 50.3431 45.9834 50.3459 45.9556 50.5926Z" fill="#212121" stroke="#212121" stroke-width="0.1"/>
<path d="M45.207 49.7202C45.2116 50.5458 44.8396 51.4058 44.2655 51.9937C44.09 52.1738 44.3653 52.4496 44.5413 52.2695C45.1858 51.6091 45.602 50.6473 45.597 49.7202C45.5955 49.4689 45.2058 49.4689 45.207 49.7202Z" fill="#212121" stroke="#212121" stroke-width="0.1"/>
<path d="M44.1321 49.2587C44.2865 50.0997 43.8551 51.046 43.1681 51.5269C42.9638 51.6696 43.1585 52.0078 43.3649 51.8633C44.2087 51.2726 44.6966 50.1838 44.5079 49.1549C44.4625 48.9082 44.0869 49.0132 44.1321 49.2587Z" fill="#212121" stroke="#212121" stroke-width="0.1"/>
<path d="M42.8226 49.0789C42.869 49.8858 42.1975 50.6511 41.5596 51.065C41.3497 51.2011 41.5446 51.5388 41.7563 51.4014C42.5054 50.9152 43.2668 50.026 43.2123 49.0789C43.1979 48.8291 42.8082 48.8279 42.8226 49.0789Z" fill="#212121" stroke="#212121" stroke-width="0.1"/>
<path d="M41.6642 49.1813C41.5197 49.8958 40.8969 50.394 40.4108 50.8906C40.2352 51.0704 40.5105 51.3462 40.6866 51.1664C41.22 50.6208 41.8811 50.0695 42.04 49.2848C42.0897 49.0393 41.714 48.935 41.6642 49.1813Z" fill="#212121" stroke="#212121" stroke-width="0.1"/>
<path d="M52.2841 33.9276C51.6871 33.0305 52.2927 31.5821 52.9832 30.9141C53.1764 30.727 52.8817 30.433 52.6887 30.6196C51.8672 31.4147 51.2224 33.0825 51.9247 34.1377C52.0725 34.3599 52.4334 34.1518 52.2841 33.9276Z" fill="#212121" stroke="#212121" stroke-width="0.1"/>
<path d="M51.0521 33.5482C50.6727 33.1532 50.8773 32.4829 51.0311 32.0336C51.2304 31.4522 51.7365 31.061 52.109 30.5948C52.2747 30.3874 51.982 30.0907 51.8145 30.3006C51.341 30.8936 50.8301 31.3391 50.5785 32.0727C50.3833 32.6417 50.3113 33.3779 50.7576 33.8426C50.9437 34.0366 51.2377 33.7419 51.0521 33.5482Z" fill="#212121" stroke="#212121" stroke-width="0.1"/>
<path d="M50.0101 32.5772C50.0129 32.0665 50.0414 31.5753 50.1952 31.0843C50.3869 30.4736 50.9213 30.0542 51.4133 29.6902C51.6206 29.5367 51.4188 29.1844 51.2085 29.3402C50.6743 29.7357 50.1993 30.1408 49.898 30.7454C49.6199 31.3028 49.608 31.9693 49.6045 32.5772C49.6032 32.8386 50.0086 32.8386 50.0101 32.5772Z" fill="#212121" stroke="#212121" stroke-width="0.1"/>
<path d="M49.2357 31.2989C49.481 30.3281 49.9469 29.4434 50.7271 28.7994C50.9342 28.6281 50.6379 28.3354 50.4326 28.5049C49.602 29.1908 49.0953 30.1546 48.8342 31.188C48.7683 31.4486 49.1698 31.559 49.2357 31.2989Z" fill="#212121" stroke="#212121" stroke-width="0.1"/>
<path d="M48.5132 29.3082C48.8501 28.6271 49.5274 28.1444 50.1866 27.803C50.425 27.6795 50.2144 27.3203 49.9765 27.4436C49.2595 27.8148 48.52 28.3581 48.1535 29.0981C48.0351 29.3377 48.3942 29.5489 48.5132 29.3082Z" fill="#212121" stroke="#212121" stroke-width="0.1"/>
<path d="M47.0705 27.279C47.4016 26.4974 47.862 25.796 48.5911 25.3356C48.8104 25.1972 48.6081 24.8479 48.3873 24.9873C47.6006 25.4844 47.0809 26.2281 46.7222 27.0752C46.6222 27.3118 46.9695 27.5177 47.0705 27.279Z" fill="#212121" stroke="#212121" stroke-width="0.1"/>
<path d="M46.2436 26.6432C46.312 26.1911 46.5355 25.8057 46.778 25.4253C47.0396 25.0154 47.2932 24.5091 47.6915 24.2194C47.8996 24.0681 47.6986 23.7178 47.4877 23.8711C47.0861 24.1631 46.8692 24.573 46.5944 24.9753C46.2694 25.4511 45.942 25.9562 45.8542 26.5358C45.8163 26.7901 46.2047 26.8995 46.2436 26.6432Z" fill="#212121" stroke="#212121" stroke-width="0.1"/>
<path d="M45.1257 25.8464C45.2118 24.8587 45.8429 23.6959 46.7221 23.2024C46.9486 23.0751 46.7455 22.7266 46.5182 22.8542C45.5075 23.4214 44.8203 24.7162 44.7221 25.8464C44.6999 26.1055 45.1032 26.1035 45.1257 25.8464Z" fill="#212121" stroke="#212121" stroke-width="0.1"/>
<path d="M44.0711 24.4617C44.3651 23.3045 45.2374 22.5345 46.1135 21.7915C46.3123 21.623 46.0254 21.3389 45.8284 21.5061C44.8962 22.2968 43.9936 23.128 43.6819 24.3544C43.6178 24.6067 44.007 24.7135 44.0711 24.4617Z" fill="#212121" stroke="#212121" stroke-width="0.1"/>
<path d="M44.019 21.6988C44.2812 21.4442 44.5256 21.172 44.7832 20.9134C45.1113 20.5843 45.4967 20.3385 45.8735 20.0711C46.0836 19.9218 45.8824 19.5718 45.6697 19.7228C45.326 19.967 44.9714 20.1926 44.657 20.4754C44.3309 20.7689 44.0481 21.1078 43.7336 21.4134C43.547 21.595 43.8326 21.8799 44.019 21.6988Z" fill="#212121" stroke="#212121" stroke-width="0.1"/>
<path d="M46.3196 29.1005C45.4427 28.8929 44.409 28.7618 43.7794 28.0516C43.6443 27.8994 43.4223 28.1229 43.5564 28.2744C44.2267 29.0308 45.3023 29.1836 46.2355 29.4046C46.4333 29.4513 46.5171 29.1475 46.3196 29.1005Z" fill="#212121" stroke="#212121" stroke-width="0.1"/>
<path d="M44.5194 29.9899C43.7449 29.6224 42.524 29.5333 42.2732 28.5574C42.2045 28.2892 41.7898 28.4031 41.8588 28.6716C42.1548 29.8245 43.3885 29.9275 44.3022 30.3609C44.5515 30.4791 44.7695 30.1086 44.5194 29.9899Z" fill="#212121" stroke="#212121" stroke-width="0.1"/>
<path d="M42.1174 30.2879C41.4239 29.999 40.5508 29.4421 40.4892 28.6142C40.471 28.37 40.0886 28.3683 40.1068 28.6142C40.1834 29.6386 41.1473 30.2947 42.0159 30.6567C42.2432 30.7516 42.3417 30.3816 42.1174 30.2879Z" fill="#212121" stroke="#212121" stroke-width="0.1"/>
<path d="M39.0819 29.3143C38.6604 28.7703 38.8549 27.9934 38.8647 27.3605C38.8692 27.083 38.4389 27.0832 38.4346 27.3605C38.4222 28.151 38.2573 28.9466 38.7776 29.6186C38.947 29.8376 39.2493 29.5307 39.0819 29.3143Z" fill="#212121" stroke="#212121" stroke-width="0.1"/>
<path d="M60.4242 21.637C59.4047 21.4198 58.9885 19.9661 58.8084 19.0799C58.749 18.7869 58.302 18.9115 58.3614 19.2032C58.575 20.2558 59.1003 21.8285 60.301 22.084C60.5924 22.1462 60.7164 21.6991 60.4242 21.637Z" fill="#212121" stroke="#212121" stroke-width="0.1"/>
<path d="M59.2706 21.8586C58.1068 21.1032 57.7141 20.1051 57.457 18.7966C57.3994 18.5034 56.9526 18.6279 57.01 18.9199C57.2926 20.3602 57.7669 21.4353 59.0367 22.2589C59.2882 22.4223 59.5203 22.0207 59.2706 21.8586Z" fill="#212121" stroke="#212121" stroke-width="0.1"/>
<path d="M57.2906 21.6401C56.3566 20.6784 55.5921 19.4681 55.5452 18.0937C55.5351 17.7954 55.0711 17.7944 55.0815 18.0937C55.1327 19.5934 55.9402 20.9152 56.9625 21.9679C57.1714 22.1826 57.4987 21.8545 57.2906 21.6401Z" fill="#212121" stroke="#212121" stroke-width="0.1"/>
<path d="M54.6966 20.4977C54.066 19.4569 53.7841 18.1178 54.1506 16.9374C54.2397 16.651 53.7919 16.5295 53.7035 16.8142C53.3012 18.1085 53.6038 19.5895 54.296 20.7318C54.4508 20.9869 54.8519 20.754 54.6966 20.4977Z" fill="#212121" stroke="#212121" stroke-width="0.1"/>
<path d="M52.4214 17.629C51.9984 16.8567 51.8176 16.0068 51.7064 15.1403C51.6693 14.8512 51.2102 14.8476 51.2478 15.1403C51.3698 16.0897 51.562 17.0138 52.0254 17.8606C52.1673 18.12 52.5636 17.8886 52.4214 17.629Z" fill="#212121" stroke="#212121" stroke-width="0.1"/>
<path d="M51.4858 17.8514C50.5016 17.3021 49.9727 16.2525 49.5649 15.2456C49.455 14.9751 49.0115 15.0933 49.1224 15.3676C49.5762 16.4874 50.1599 17.6368 51.2544 18.2477C51.5128 18.3916 51.7439 17.9956 51.4858 17.8514Z" fill="#212121" stroke="#212121" stroke-width="0.1"/>
<path d="M50.1102 18.192C49.4437 17.5278 49.0058 16.7444 48.7116 15.8554C48.6191 15.5758 48.1761 15.6958 48.2691 15.9771C48.5878 16.9393 49.0646 17.7975 49.7862 18.5163C49.9958 18.7251 50.3201 18.4011 50.1102 18.192Z" fill="#212121" stroke="#212121" stroke-width="0.1"/>
<path d="M48.9008 18.5521C47.8078 17.547 46.8693 16.3918 46.2697 15.0247C46.151 14.7545 45.756 14.9881 45.8737 15.2563C46.4877 16.656 47.4575 17.8475 48.5768 18.8767C48.7942 19.0762 49.1193 18.7527 48.9008 18.5521Z" fill="#212121" stroke="#212121" stroke-width="0.1"/>
<path d="M46.8386 18.1369C46.4939 17.7363 46.0578 17.4487 45.6547 17.1123C45.073 16.6269 44.8056 15.8909 44.6932 15.1625C44.648 14.8708 44.206 14.9951 44.2507 15.2843C44.347 15.9068 44.5586 16.5839 44.9756 17.0731C45.4284 17.604 46.059 17.9323 46.5144 18.4612C46.7076 18.6857 47.0303 18.3599 46.8386 18.1369Z" fill="#212121" stroke="#212121" stroke-width="0.1"/>
<path d="M43.4871 13.4611C43.4742 12.4794 43.0678 11.4088 42.0894 11.0429C41.775 10.9252 41.6406 11.4275 41.9513 11.5437C42.6938 11.8215 42.9582 12.7368 42.9678 13.4608C42.9719 13.796 43.4916 13.7962 43.4871 13.4611Z" fill="#212121" stroke="#212121" stroke-width="0.1"/>
<path d="M42.8236 14.7173C42.8097 13.6942 42.5508 12.4946 41.6659 11.8728C41.3908 11.6796 41.1317 12.1304 41.4035 12.3214C42.12 12.8247 42.293 13.9028 42.3041 14.7171C42.3086 15.0522 42.8284 15.0525 42.8236 14.7173Z" fill="#212121" stroke="#212121" stroke-width="0.1"/>
<path d="M41.9374 15.5331C42.0955 14.4148 41.8776 13.2164 40.9401 12.4954C40.6744 12.291 40.4163 12.7426 40.6777 12.9439C41.4063 13.5043 41.5573 14.5395 41.4364 15.3949C41.3901 15.7225 41.8907 15.8637 41.9374 15.5331Z" fill="#212121" stroke="#212121" stroke-width="0.1"/>
<path d="M40.9269 15.6894C40.9239 14.8179 40.8176 14.0402 40.2751 13.3301C40.0748 13.0677 39.623 13.3258 39.8268 13.5922C40.3162 14.2329 40.4046 14.9032 40.4077 15.6894C40.4087 16.0243 40.9282 16.0243 40.9269 15.6894Z" fill="#212121" stroke="#212121" stroke-width="0.1"/>
<path d="M39.6881 16.0932C40.1932 15.3269 39.9311 13.948 39.1509 13.4545C38.8668 13.2749 38.6064 13.7247 38.8885 13.903C39.4363 14.2493 39.5843 15.308 39.2398 15.8308C39.0547 16.1116 39.5048 16.3715 39.6881 16.0932Z" fill="#212121" stroke="#212121" stroke-width="0.1"/>
<path d="M38.7368 16.0667C39.0841 15.1381 38.8366 14.2059 38.1663 13.4952C37.936 13.251 37.5693 13.6192 37.7988 13.8627C38.3512 14.4481 38.5191 15.1717 38.2357 15.9286C38.1181 16.243 38.6204 16.3776 38.7368 16.0667Z" fill="#212121" stroke="#212121" stroke-width="0.1"/>
<path d="M37.6562 15.6202C37.5486 14.98 37.6726 14.4168 37.1627 13.9173C36.9233 13.6829 36.5555 14.0499 36.7952 14.2847C37.1996 14.6805 37.069 15.2455 37.1551 15.7584C37.2104 16.0882 37.7112 15.9481 37.6562 15.6202Z" fill="#212121" stroke="#212121" stroke-width="0.1"/>
<path d="M54.5072 51.1439C55.6305 51.6261 57.3098 50.8202 57.1042 49.4632C57.0585 49.1619 56.6024 49.2902 56.6473 49.589C56.786 50.5052 55.4666 51.0442 54.7463 50.7351C54.4685 50.6159 54.2271 51.0237 54.5072 51.1439Z" fill="#212121" stroke="#212121" stroke-width="0.1"/>
<path d="M54.4175 50.4055C54.8948 50.5351 55.3305 50.2345 55.6555 49.9125C56.1035 49.468 56.1889 48.8278 56.1957 48.2249C56.1993 47.9194 55.7255 47.9196 55.7222 48.2249C55.7174 48.6356 55.6866 49.0528 55.4615 49.4087C55.2926 49.6754 54.8817 50.0406 54.5433 49.9489C54.248 49.8686 54.123 50.3257 54.4175 50.4055Z" fill="#212121" stroke="#212121" stroke-width="0.1"/>
<path d="M54.3198 49.9628C55.0419 49.4433 55.4583 48.5598 55.4152 47.6719C55.4005 47.3678 54.9265 47.3663 54.9416 47.6719C54.9762 48.3833 54.6684 49.1311 54.0807 49.5539C53.8352 49.7304 54.0711 50.1416 54.3198 49.9628Z" fill="#212121" stroke="#212121" stroke-width="0.1"/>
<path d="M53.6794 48.7522C54.3906 48.5936 54.5487 47.4306 54.5823 46.8411C54.5997 46.5358 54.1259 46.5376 54.1087 46.8411C54.0883 47.198 53.9913 48.1978 53.5536 48.2956C53.2556 48.3618 53.3821 48.8186 53.6794 48.7522Z" fill="#212121" stroke="#212121" stroke-width="0.1"/>
<path d="M52.9727 48.1752C53.6432 47.6524 53.6816 46.7222 53.7495 45.9431C53.776 45.6385 53.3022 45.6413 53.276 45.9431C53.2181 46.6018 53.2053 47.3976 52.6378 47.8403C52.3968 48.0279 52.7348 48.3608 52.9727 48.1752Z" fill="#212121" stroke="#212121" stroke-width="0.1"/>
<path d="M34.5125 54.092C35.6513 53.6887 36.3256 52.1511 36.4456 51.0313C36.4776 50.733 36.0119 50.736 35.9804 51.0313C35.8841 51.9248 35.3022 53.3197 34.3885 53.6432C34.1079 53.7427 34.2289 54.1922 34.5125 54.092Z" fill="#212121" stroke="#212121" stroke-width="0.1"/>
<path d="M34.1361 51.7808C35.0695 51.1027 35.3653 49.8417 35.3819 48.7433C35.3867 48.443 34.9213 48.4433 34.9167 48.7433C34.9028 49.6535 34.6859 50.8089 33.9012 51.379C33.661 51.5532 33.8929 51.9573 34.1361 51.7808Z" fill="#212121" stroke="#212121" stroke-width="0.1"/>
<path d="M51.1678 55.8286C51.5164 54.8598 51.1186 53.9532 50.8516 53.0177C50.7673 52.722 50.3061 52.8477 50.391 53.145C50.6319 53.9898 51.0231 54.8224 50.7072 55.7013C50.6026 55.992 51.0645 56.1163 51.1678 55.8286Z" fill="#212121" stroke="#212121" stroke-width="0.1"/>
<path d="M46.1307 49.3634C46.555 49.3712 46.9573 49.4323 47.3483 49.6023C47.7958 49.7968 48.0016 50.1413 48.2585 50.5269C48.4002 50.7393 48.7452 50.5403 48.6022 50.3261C48.3289 49.9162 48.1145 49.5839 47.6811 49.326C47.2192 49.0512 46.6578 48.975 46.1305 48.9651C45.8739 48.9606 45.8744 49.3586 46.1307 49.3634Z" fill="#212121" stroke="#212121" stroke-width="0.1"/>
<path d="M46.4794 48.5276C47.3172 48.5238 48.9668 48.6908 48.9476 49.8293C48.9434 50.0861 49.3416 50.0856 49.3457 49.8293C49.3689 48.4223 47.5586 48.1248 46.4792 48.1296C46.2228 48.1306 46.2226 48.5286 46.4794 48.5276Z" fill="#212121" stroke="#212121" stroke-width="0.1"/>
<path d="M48.0117 47.9063C48.6067 48.0331 49.7412 48.349 49.8369 49.0789C49.87 49.3295 50.2683 49.3327 50.2349 49.0789C50.1087 48.1185 48.9396 47.6977 48.1173 47.5227C47.8672 47.4691 47.7607 47.8528 48.0117 47.9063Z" fill="#212121" stroke="#212121" stroke-width="0.1"/>
<path d="M34.0178 10.7828C34.0178 7.16476 35.8163 4 40.1577 4C44.4988 4 45.5618 8.60305 45.5618 8.60305C45.5618 8.60305 51.5761 5.90502 53.9514 13.2483C58.4643 12.7805 62.367 17.4447 60.4155 21.8535C62.9587 23.134 64.2617 25.6467 62.5728 29.757C65.5161 31.0326 65.7293 38.0147 62.3733 40.2966C62.9802 43.0241 62.7001 45.5512 59.6836 46.7955C59.9854 50.1143 57.3705 55.6743 51.3496 55.3139C50.4447 58.3413 44.2581 60.4567 40.7858 59.6381C37.3131 58.8199 34.0181 56.4289 34.0181 51.0937C34.0178 45.7583 34.0178 10.7828 34.0178 10.7828Z" stroke="#212121" stroke-width="1.5" stroke-miterlimit="10"/>
<path d="M60.4155 21.8534C60.4155 21.8534 55.215 23.594 52.7263 17.392C51.7582 18.1729 45.9023 21.1654 42.0203 15.1407" stroke="#212121" stroke-width="1.5" stroke-miterlimit="10"/>
<path d="M43.6689 11.8019C43.6689 11.8019 43.4192 17.7215 36.7512 15.6655" stroke="#212121" stroke-width="1.5" stroke-miterlimit="10"/>
<path d="M62.5726 29.7567C62.5726 29.7567 59.1232 27.8587 56.0453 29.0394C52.9675 30.2199 53.0715 34.2976 53.0715 34.2976C53.0715 34.2976 46.4458 32.5062 44.3657 39.6075" stroke="#212121" stroke-width="1.5" stroke-miterlimit="10"/>
<path d="M34.0178 35.4569C34.0178 35.4569 41.8765 31.6815 44.1824 39.7554C47.1878 38.6545 53.2056 39.7705 51.8252 47.2237" stroke="#212121" stroke-width="1.5" stroke-miterlimit="10"/>
<path d="M54.84 51.5798C54.84 51.5798 54.348 47.0859 50.1231 47.0884C46.4608 47.0907 45.542 49.8614 45.542 49.8614" stroke="#212121" stroke-width="1.5" stroke-miterlimit="10"/>
<path d="M46.7256 54.8249C46.7256 54.8249 48.1041 46.227 38.824 49.7744" stroke="#212121" stroke-width="1.5" stroke-miterlimit="10"/>
<path d="M53.0715 34.2975C53.0715 34.2975 47.4049 33.2381 48.0747 27.7059C48.0747 27.7059 40.2102 25.7122 45.3247 18.2061" stroke="#212121" stroke-width="1.5" stroke-miterlimit="10"/>
<path d="M48.0746 27.706C48.0746 27.706 41.3185 34.6694 36.3884 26.5897" stroke="#212121" stroke-width="1.5" stroke-miterlimit="10"/>
</svg>
