<svg width="16" height="16" viewBox="0 0 16 16" fill="none" xmlns="http://www.w3.org/2000/svg">
<g clip-path="url(#clip0_4406_1880)">
<path d="M13.6337 13.5006H11.2846V9.85794C11.2846 8.98933 11.2689 7.87115 10.0628 7.87115C8.83931 7.87115 8.65211 8.81754 8.65211 9.7947V13.5003H6.30296V6.00963H8.55813V7.03331H8.58971C8.8154 6.65123 9.14152 6.33691 9.53335 6.12383C9.92518 5.91075 10.368 5.80689 10.8148 5.82331C13.1957 5.82331 13.6347 7.37397 13.6347 9.39129L13.6337 13.5006ZM3.65237 4.98571C3.38274 4.98575 3.11916 4.90664 2.89495 4.75836C2.67074 4.61008 2.49598 4.3993 2.39276 4.15267C2.28953 3.90605 2.26248 3.63465 2.31504 3.37281C2.36759 3.11096 2.49739 2.87042 2.688 2.68162C2.87862 2.49281 3.1215 2.36421 3.38593 2.31208C3.65036 2.25995 3.92446 2.28663 4.17358 2.38875C4.4227 2.49087 4.63563 2.66384 4.78547 2.88579C4.9353 3.10774 5.01531 3.36869 5.01535 3.63566C5.01539 3.81292 4.98015 3.98845 4.91167 4.15223C4.84319 4.316 4.74282 4.46482 4.61625 4.59019C4.48969 4.71555 4.33941 4.815 4.17403 4.88286C4.00865 4.95073 3.83139 4.98567 3.65237 4.98571ZM4.82693 13.5006H2.47535V6.00963H4.82693V13.5006ZM14.8049 0.12607H1.29492C0.988281 0.122643 0.692799 0.239897 0.473428 0.452064C0.254057 0.664232 0.128742 0.953955 0.125 1.25757V14.69C0.128614 14.9937 0.253855 15.2836 0.473219 15.496C0.692582 15.7084 0.988129 15.8259 1.29492 15.8227H14.8049C15.1123 15.8265 15.4086 15.7093 15.6289 15.497C15.8491 15.2846 15.9752 14.9943 15.9794 14.69V1.2566C15.9751 0.952384 15.8489 0.662331 15.6286 0.450169C15.4084 0.238006 15.1121 0.121088 14.8049 0.1251" fill="#878787"/>
</g>
<defs>
<clipPath id="clip0_4406_1880">
<rect width="16" height="16" fill="white"/>
</clipPath>
</defs>
</svg>
