<svg width="64" height="64" viewBox="0 0 64 64" fill="none" xmlns="http://www.w3.org/2000/svg">
<path d="M36.4227 9.56543H26.4707V12.0541H36.4227V9.56543Z" fill="#545454"/>
<path d="M33.9534 11.5342H29.0806V60.6734H33.9534V11.5342Z" fill="#545454"/>
<path d="M39.6016 56.9402H24.6743V59.4318H39.6016V56.9402Z" fill="#545454"/>
<path d="M31.4467 19.6567C26.6541 19.6567 23.4433 17.8436 20.3388 16.0905C16.6135 13.9878 12.7661 11.8133 5.63057 12.3947L5.42725 9.91446C13.317 9.26806 17.697 11.7439 21.5607 13.9248C24.644 15.6646 27.3079 17.1667 31.4467 17.1667V19.6567Z" fill="#545454"/>
<path d="M31.5151 19.6567V17.1666C35.6554 17.1666 38.3178 15.6646 41.4027 13.9248C45.2663 11.7438 49.6483 9.27146 57.5351 9.91441L57.3328 12.3947C50.1977 11.8098 46.3508 13.9878 42.626 16.0904C39.5196 17.8435 36.3087 19.6567 31.5151 19.6567Z" fill="#545454"/>
<path d="M44.2674 59.4318H20.1113V61.9189H44.2674V59.4318Z" fill="#545454"/>
<path d="M34.2806 5.76333C34.2806 7.29047 33.0419 8.5301 31.5153 8.5301C29.9896 8.5301 28.752 7.29047 28.752 5.76333C28.752 4.23619 29.9901 3 31.5153 3C33.0424 3 34.2806 4.23619 34.2806 5.76333Z" fill="#212121"/>
<path d="M7.60747 10.9503L0.22998 40.6346L1.03553 40.8348L8.41302 11.1505L7.60747 10.9503Z" fill="#545454"/>
<path d="M8.41913 10.952L7.61279 11.153L15.0086 40.8311L15.815 40.6302L8.41913 10.952Z" fill="#545454"/>
<path d="M8.43257 11.0566H7.60254V41.3572H8.43257V11.0566Z" fill="#545454"/>
<path d="M55.5584 10.9559L48.1992 40.6433L49.0063 40.8434L56.3654 11.156L55.5584 10.9559Z" fill="#545454"/>
<path d="M56.3815 10.9565L55.5752 11.1575L62.971 40.8357L63.7774 40.6347L56.3815 10.9565Z" fill="#545454"/>
<path d="M8.01773 40.5336H0C0 40.5336 0.599144 45.7043 8.01773 45.7043C15.4353 45.7043 16.0355 40.5336 16.0355 40.5336H8.01773Z" fill="#545454"/>
<path d="M56.3984 11.0566H55.5679V41.3572H56.3984V11.0566Z" fill="#545454"/>
<path d="M10.782 11.0567C10.782 12.5828 9.54389 13.8205 8.01774 13.8205C6.49109 13.8205 5.25244 12.5823 5.25244 11.0567C5.25244 9.52855 6.49109 8.29187 8.01774 8.29187C9.54389 8.29187 10.782 9.52805 10.782 11.0567Z" fill="#212121"/>
<path d="M58.6087 11.0567C58.6087 12.5828 57.3696 13.8205 55.8444 13.8205C54.3177 13.8205 53.0806 12.5823 53.0806 11.0567C53.0806 9.52855 54.3182 8.29187 55.8444 8.29187C57.3701 8.29187 58.6087 9.52805 58.6087 11.0567Z" fill="#212121"/>
<path d="M55.9816 40.5336H47.9658C47.9658 40.5336 48.5635 45.7043 55.9816 45.7043C63.4002 45.7043 63.9998 40.5336 63.9998 40.5336H55.9816Z" fill="#545454"/>
<path d="M16.0358 40.5336H8.01807V45.7043C15.4357 45.7043 16.0358 40.5336 16.0358 40.5336Z" fill="#212121"/>
<path d="M33.9535 11.5342H31.5156V60.6734H33.9535V11.5342Z" fill="#212121"/>
<path d="M63.9997 40.5336H55.9819V45.7043C63.4 45.7043 63.9997 40.5336 63.9997 40.5336Z" fill="#212121"/>
<path d="M39.6018 56.9402H31.5156V59.4318H39.6018V56.9402Z" fill="#212121"/>
<path d="M44.2674 59.4318H31.5156V61.9189H44.2674V59.4318Z" fill="#212121"/>
<path d="M36.423 9.56543H31.5156V12.0541H36.423V9.56543Z" fill="#212121"/>
</svg>
